<svg version="1.1" viewBox="0.0 0.0 960.0 720.0" fill="none" stroke="none" stroke-linecap="square" stroke-miterlimit="10" xmlns:xlink="http://www.w3.org/1999/xlink" xmlns="http://www.w3.org/2000/svg"><clipPath id="p.0"><path d="m0 0l960.0 0l0 720.0l-960.0 0l0 -720.0z" clip-rule="nonzero"/></clipPath><g clip-path="url(#p.0)"><path fill="#000000" fill-opacity="0.0" d="m0 0l960.0 0l0 720.0l-960.0 0z" fill-rule="evenodd"/><path fill="#085631" d="m322.7139 73.552345l0 0c12.754425 -14.110916 33.43338 -14.110916 46.187805 0l0 0l0 0c6.124878 6.7762985 9.565796 15.966934 9.565796 25.550072c0 9.5831375 -3.440918 18.773773 -9.565796 25.550072l-203.79842 225.4736c-12.754395 14.110901 -33.43338 14.110901 -46.187782 0l0 0l0 0c-12.75441 -14.110931 -12.75441 -36.989227 0 -51.10016z" fill-rule="evenodd"/><g filter="url(#shadowFilter-p.1)"><use xlink:href="#p.1" transform="matrix(1.0 0.0 0.0 1.0 0.0 5.333333333333333)"/></g><defs><filter id="shadowFilter-p.1" filterUnits="userSpaceOnUse"><feGaussianBlur in="SourceAlpha" stdDeviation="8.0" result="blur"/><feComponentTransfer in="blur" color-interpolation-filters="sRGB"><feFuncR type="linear" slope="0" intercept="0.0"/><feFuncG type="linear" slope="0" intercept="0.0"/><feFuncB type="linear" slope="0" intercept="0.0"/><feFuncA type="linear" slope="0.549" intercept="0"/></feComponentTransfer></filter></defs><g id="p.1"><path fill="#ffffff" d="m121.05693 322.5939l0 0c0 -13.290283 9.738174 -24.064178 21.750824 -24.064178l0 0c5.7686768 0 11.301086 2.5353394 15.380157 7.0482483c4.079056 4.512909 6.3706665 10.6336975 6.3706665 17.01593l0 0c0 13.290253 -9.738174 24.064148 -21.750824 24.064148l0 0c-12.01265 0 -21.750824 -10.773895 -21.750824 -24.064148z" fill-rule="evenodd"/><path fill="#085631" d="m144.48354 328.4539l-2.265625 0l0 -8.703125l-2.6875 0.828125l0 -1.828125l4.703125 -1.6875l0.25 0l0 11.390625z" fill-rule="nonzero"/></g><path fill="#000000" fill-opacity="0.0" d="m143.52264 288.0133l191.79794 -212.19684l32.33844 35.777824l-191.79796 212.19681z" fill-rule="evenodd"/><path fill="#ffffff" d="m175.5594 294.84918l-1.5715942 1.738739l-3.2856293 -3.6350708l-3.0698547 3.3963318l3.2856293 3.6351013l-1.5715942 1.738739l-7.6664886 -8.481842l1.5715942 -1.7387695l3.1066132 3.4370117l3.0698547 -3.3963318l-3.1066132 -3.4370117l1.5716095 -1.7387695l7.6664734 8.481873zm0.56469727 -14.768951l-2.336441 2.5849304l6.3922424 7.072113l-1.5715942 1.738739l-6.3922424 -7.072113l-2.305008 2.550171l-1.2742462 -1.4097595l6.2130585 -6.8738403l1.274231 1.4097595zm1.6751404 -4.672821l7.519562 3.9840393l-3.6115265 -8.307709l2.0640259 -2.2835693l7.6664886 8.481873l-1.5715942 1.738739l-2.095642 -2.3185425l-3.4654694 -4.1817627l3.6542358 8.609985l-1.0791626 1.1939392l-7.7612915 -4.042816l3.7692413 3.8223877l2.0956573 2.318512l-1.5716095 1.738739l-7.6664734 -8.481842l2.0535583 -2.2719727zm15.308441 -2.792389l3.34227 -3.6977234l1.274231 1.4097595l-4.913864 5.4364624l-7.6664886 -8.481842l1.5716095 -1.7387695l6.3922424 7.072113zm5.0354614 -9.648834q-1.2110596 -1.3398438 -1.9814148 -2.8876343q-0.77041626 -1.5710449 -0.9841919 -3.1753845q-0.21383667 -1.6275635 0.19311523 -2.8001556l1.1147766 0.58421326q-0.19616699 1.4753418 0.5642395 3.2671509q0.76042175 1.7918091 2.350586 3.5510864l0.15797424 0.17477417q1.6006927 1.770935 3.2203064 2.6354675q1.6195526 0.8413086 2.984604 0.6359558l0.5175171 1.2217102q-1.0389252 0.42703247 -2.4679565 0.21383667q-1.4290466 -0.21322632 -2.817459 -1.0306091q-1.398941 -0.82907104 -2.5782928 -2.087494l-0.2738037 -0.30291748zm13.12822 -7.6271515l-1.5715942 1.7387543l-3.2856445 -3.635086l-3.0698547 3.396347l3.2856445 3.6351013l-1.5716095 1.738739l-7.6664734 -8.481857l1.5715942 -1.7387543l3.1066132 3.437027l3.0698547 -3.3963623l-3.1066132 -3.4370117l1.5715942 -1.7387543l7.6664886 8.481857zm1.2305756 -6.138321l-2.490631 -5.073883l1.6239777 -1.7967072l4.2977448 9.808807l0.17967224 0.4769745q0.61335754 1.7913971 -0.56010437 3.0896606q-0.32479858 0.35934448 -0.7758484 0.6253662l-1.1478729 -1.2699585l0.23049927 -0.25502014q0.4295807 -0.47525024 0.5022125 -0.858551q0.09365845 -0.38323975 -0.09648132 -0.84861755l-0.2852478 -0.70970154l-7.6984863 -4.13562l1.6239929 -1.7967072l4.596573 2.7439575zm7.729004 -9.972443q1.3163605 1.4563599 1.5195007 3.0025635q0.1926117 1.5345306 -0.81321716 2.6473389q-0.85913086 0.95051575 -1.9937439 0.87757874l2.685379 2.970993l-1.5087433 1.6691895l-7.887619 -8.726532l1.4039612 -1.5532837l0.6105194 0.5595398q-0.118621826 -1.3367615 0.77194214 -2.322052q1.0477295 -1.1591644 2.4032745 -0.9345398q1.3660126 0.21302795 2.7350311 1.7276459l0.07371521 0.08155823zm-1.624527 1.5642853q-0.80033875 -0.8854675 -1.5149994 -1.0501862q-0.70417786 -0.17630005 -1.2385101 0.41487122q-0.7124634 0.7882385 -0.43727112 1.6954651l2.33786 2.586502q0.8410187 0.30451965 1.553482 -0.48371887q1.0791626 -1.1939392 -0.7005615 -3.1629333zm8.077621 -2.2724q-1.2467957 1.3793945 -2.8013458 1.3982544q-1.5545654 0.018859863 -2.839325 -1.4025574l-0.14743042 -0.1631012q-0.8530121 -0.9437256 -1.202179 -2.0487213q-0.34924316 -1.1282501 -0.099609375 -2.196701q0.23910522 -1.0800934 1.0144348 -1.9378662q1.1629791 -1.2866821 2.5602112 -1.2013855q1.4077148 0.07369995 2.755661 1.5650024l0.62132263 0.68740845l-3.6042023 3.9875336q0.631485 0.53634644 1.3351746 0.503479q0.70370483 -0.03288269 1.2694702 -0.65882874q0.88009644 -0.9737091 0.7406769 -2.2175598l1.5758362 0.09741211q0.13867188 0.91845703 -0.17425537 1.8705139q-0.30245972 0.94047546 -1.0044403 1.7171173zm-4.853821 -4.975952q-0.450531 0.4984436 -0.4280243 1.149292q0.032989502 0.63926697 0.5178375 1.361145l2.1059418 -2.3299255l-0.12637329 -0.13981628q-0.5159607 -0.54763794 -1.0516968 -0.56077576q-0.5357361 -0.013137817 -1.0176849 0.52008057zm6.8484344 -6.924347q-0.3564453 0.30114746 -0.5869446 0.55615234q-0.8591461 0.95051575 -0.54182434 1.9043579l3.7279358 4.12442l-1.5087433 1.6691895l-5.6972046 -6.303131l1.4249115 -1.5764618l0.71588135 0.6992798q-0.31828308 -1.3721924 0.4884796 -2.2647552q0.25144958 -0.27819824 0.53466797 -0.4517212l1.4428406 1.6426697zm-0.019607544 -6.2232056l1.4006195 1.5495605l0.96391296 -1.0664215l1.116272 1.2349854l-0.96391296 1.0664368l2.843338 3.1457367q0.31591797 0.34953308 0.56806946 0.37348938q0.26263428 0.012359619 0.59791565 -0.35856628q0.25144958 -0.2782135 0.4084015 -0.54504395l1.1583862 1.2815857q-0.3136139 0.64990234 -0.7850952 1.1715393q-1.5925598 1.7619324 -3.2457428 0.002456665l-3.0644836 -3.3904114l-0.827713 0.91574097l-1.116272 -1.2350006l0.827713 -0.91574097l-1.4006195 -1.5495605l1.5192108 -1.6807861zm11.6245575 3.07753q-1.2467957 1.3794098 -2.8013458 1.3982697q-1.5545654 0.018859863 -2.839325 -1.4025574l-0.14743042 -0.1631012q-0.8530121 -0.9437256 -1.202179 -2.0487213q-0.34924316 -1.1282501 -0.099609375 -2.196701q0.23910522 -1.0800934 1.0144348 -1.9378815q1.1629791 -1.2866669 2.5602112 -1.2013702q1.4077148 0.07368469 2.755661 1.5650024l0.62132263 0.68740845l-3.6042023 3.9875336q0.631485 0.53634644 1.3351746 0.503479q0.70370483 -0.03288269 1.2694702 -0.65882874q0.88009644 -0.9737091 0.7406769 -2.2175598l1.5758362 0.09741211q0.13867188 0.91845703 -0.17425537 1.8705139q-0.30245972 0.94047546 -1.0044403 1.717102zm-4.853821 -4.975937q-0.450531 0.4984436 -0.4280243 1.149292q0.032989502 0.6392517 0.5178375 1.361145l2.1059418 -2.3299255l-0.12637329 -0.13981628q-0.5159607 -0.5476532 -1.0516968 -0.56077576q-0.5357361 -0.013137817 -1.0176849 0.52008057zm6.095459 -5.485443l-0.7420349 -2.9306335l1.6134949 -1.7851257l1.177185 4.8726044l4.5933685 1.3493958l-1.6239777 1.7967072l-2.806549 -0.8562622l0.7844238 3.09346l-1.6239929 1.7966919l-1.2301483 -5.0703125l-4.3937073 -1.3139648l1.6239777 -1.7967072l2.6279602 0.8441467zm2.0168457 -9.082092l1.4006042 1.5495605l0.96391296 -1.0664215l1.1162872 1.2349854l-0.9639282 1.0664368l2.8433533 3.145752q0.31591797 0.34951782 0.56806946 0.37347412q0.26263428 0.012359619 0.5979004 -0.35856628q0.25146484 -0.27819824 0.4084015 -0.54504395l1.1584015 1.281601q-0.31362915 0.64990234 -0.7850952 1.171524q-1.5925598 1.7619324 -3.2457428 0.0024719238l-3.064499 -3.3904266l-0.82769775 0.91574097l-1.116272 -1.2349854l0.82769775 -0.91574097l-1.4006042 -1.5495758l1.5192108 -1.6807861zm6.0634766 -7.9666595l7.519562 3.9840393l-3.6115112 -8.307724l2.0640259 -2.2835693l7.6664734 8.481873l-1.5715942 1.738739l-2.095642 -2.3185272l-3.465454 -4.181793l3.6542358 8.610001l-1.0791626 1.1939392l-7.761307 -4.0428314l3.7692566 3.8223877l2.0956573 2.3185425l-1.5716095 1.738739l-7.6664886 -8.481857l2.0535583 -2.2719574zm18.196198 -3.1677551q-0.31539917 -0.11709595 -0.6626892 -0.4086151q0.06600952 1.3017731 -0.8140869 2.275467q-0.82769775 0.91574097 -1.8674316 0.9941559q-1.0292358 0.06681824 -1.7663879 -0.7487488q-0.90567017 -1.0019684 -0.71954346 -2.2797852q0.18612671 -1.2778015 1.4328918 -2.6804504l0.70196533 -0.77664185l-0.32644653 -0.36117554q-0.38964844 -0.4310913 -0.8308716 -0.4555664q-0.44128418 -0.047729492 -0.8708496 0.42752075q-0.3876648 0.42889404 -0.41812134 0.8820343q-0.030517578 0.42990112 0.2854004 0.77941895l-1.5192261 1.6808014q-0.49493408 -0.54759216 -0.6123352 -1.3497925q-0.11740112 -0.8022003 0.2062378 -1.6728668q0.31307983 -0.8823395 1.0045776 -1.6473846q1.0477295 -1.1591644 2.1924438 -1.2605286q1.1447144 -0.101364136 2.1030273 0.95887756l2.474762 2.7379608q0.81085205 0.89712524 1.4415894 1.108078l0.0947876 0.1048584l-1.5296936 1.6923828zm-2.3104248 0.20266724q0.3352661 -0.37094116 0.47073364 -0.8470154q0.13546753 -0.47608948 0.018920898 -0.9064026l-0.9793701 -1.0835419l-0.5657959 0.62594604q-1.1419983 1.263504 -0.4255371 2.21846l0.08425903 0.09320068q0.28433228 0.3145752 0.6729431 0.30404663q0.37808228 -0.02217102 0.72384644 -0.4046936zm3.692627 -11.192429q-0.3564453 0.30114746 -0.5869446 0.5561676q-0.85913086 0.95051575 -0.5418091 1.9043427l3.7279358 4.12442l-1.508728 1.6692047l-5.6972046 -6.3031464l1.4248962 -1.5764618l0.71588135 0.69929504q-0.31826782 -1.3722076 0.48849487 -2.2647552q0.25143433 -0.27819824 0.53463745 -0.4517212l1.4428406 1.6426544zm4.772064 -0.8755646l0.0028076172 1.2086182l1.7375793 1.9223938l-1.508728 1.6692047l-8.0877075 -8.947891l1.508728 -1.6692047l4.4756165 4.951645l-0.085754395 -0.7440033l-0.24963379 -3.4986877l1.812561 -2.0053558l0.3263855 4.8818207l5.54895 1.2242584l-1.7392273 1.9242096l-3.7415771 -0.91700745zm8.778198 -5.936905q0.1187439 1.383255 -0.8661194 2.4728699q-0.91152954 1.0084686 -1.920044 0.95913696q-1.0084839 -0.049331665 -2.0404663 -1.1678772l-3.7279358 -4.12442l1.5192261 -1.6807861l3.6752625 4.066162q0.8951416 0.9903412 1.7018738 0.09777832q0.76486206 -0.8461914 0.5211487 -1.7649536l-4.033325 -4.4622955l1.5191956 -1.6807861l5.6972046 6.303131l-1.4248962 1.5764618l-0.62112427 -0.5944214zm5.489319 -10.989807q1.3163452 1.4563751 1.5194702 3.0025635q0.19262695 1.5345459 -0.8132019 2.6473389q-0.85913086 0.95051575 -1.9937439 0.877594l2.6853638 2.9709778l-1.508728 1.6691895l-7.8876343 -8.726517l1.4039612 -1.5532837l0.61053467 0.5595398q-0.118621826 -1.3367767 0.77194214 -2.3220673q1.0477295 -1.1591644 2.4032593 -0.9345398q1.3660278 0.21304321 2.7350464 1.7276611l0.07373047 0.08154297zm-1.6245422 1.5642853q-0.800354 -0.8854675 -1.5149841 -1.0501862q-0.7041931 -0.17630005 -1.2385254 0.41487122q-0.7124634 0.7882385 -0.43725586 1.6954651l2.3378296 2.586502q0.84103394 0.30451965 1.5534973 -0.4837036q1.0791626 -1.1939392 -0.7005615 -3.1629486zm8.426849 -5.7112885l3.3422546 -3.6977386l1.274231 1.4097595l-4.913849 5.4364777l-7.666504 -8.481857l1.5715942 -1.738739l6.392273 7.072098zm8.697418 -6.8029327q-0.31539917 -0.11709595 -0.6627197 -0.40859985q0.06604004 1.3017578 -0.8140564 2.2754517q-0.82769775 0.91574097 -1.8674316 0.9941559q-1.0292358 0.06681824 -1.7663879 -0.7487335q-0.90567017 -1.0019836 -0.71954346 -2.2797852q0.18612671 -1.2778168 1.4328918 -2.6804657l0.70196533 -0.77664185l-0.32644653 -0.36117554q-0.38964844 -0.43107605 -0.8308716 -0.4555664q-0.44128418 -0.047729492 -0.8708496 0.42752075q-0.3876648 0.42889404 -0.41812134 0.8820343q-0.030548096 0.42990112 0.2854004 0.7794342l-1.5192261 1.6807861q-0.49493408 -0.54759216 -0.6123352 -1.3497925q-0.11740112 -0.80218506 0.20620728 -1.6728668q0.31311035 -0.8823242 1.0046082 -1.6473846q1.0477295 -1.1591644 2.1924438 -1.2605133q1.1446838 -0.101364136 2.1029968 0.9588623l2.474762 2.7379608q0.81088257 0.89712524 1.4416199 1.108078l0.0947876 0.1048584l-1.5296936 1.6923828zm-2.3104248 0.20266724q0.3352661 -0.3709259 0.47073364 -0.8470154q0.13543701 -0.47608948 0.018920898 -0.9064026l-0.9793701 -1.0835419l-0.5657959 0.6259613q-1.1420288 1.2634888 -0.4255371 2.2184448l0.084228516 0.09320068q0.28433228 0.3145752 0.67297363 0.3040619q0.37808228 -0.02218628 0.72384644 -0.40470886zm0.4793396 -10.783127l0.6948242 0.6759949q-0.15054321 -1.5111847 0.8762512 -2.6471558q0.9010315 -0.9968872 1.8781433 -0.8895416q0.96661377 0.095703125 2.030182 1.2491913l3.685791 4.07782l-1.5191956 1.6807861l-3.6437073 -4.031204q-0.48440552 -0.5359497 -0.9151001 -0.54878235q-0.43069458 -0.012832642 -0.9126587 0.52038574q-0.6390991 0.707077 -0.41629028 1.6722717l4.0227966 4.450653l-1.5087585 1.6691895l-5.6972046 -6.3031464l1.4249268 -1.5764618zm7.1964417 -1.7635498q-1.3058167 -1.4447174 -1.4880066 -3.0140839q-0.18218994 -1.5693817 0.8760376 -2.7401428q0.9324646 -1.0316467 2.0882568 -0.8889313l-0.47421265 -0.6637573l1.3725281 -1.5185089l5.5076294 6.0934296q0.7477112 0.8272095 0.960022 1.8040009q0.22286987 0.98843384 -0.110961914 1.986908q-0.31280518 0.99853516 -1.1405334 1.9142761q-0.61813354 0.6839142 -1.4681091 1.0650177q-0.82891846 0.38116455 -1.5329285 0.2745819l-0.25619507 -1.7671509q1.2081604 0.08476257 2.014923 -0.8078003q0.5971985 -0.6607208 0.60601807 -1.3928223q0.00881958 -0.7321167 -0.59143066 -1.396225l-0.3053894 -0.33787537q0.0763855 1.2436829 -0.77227783 2.1826172q-1.0267944 1.1359711 -2.45578 0.94599915q-1.4395142 -0.20161438 -2.766388 -1.669632l-0.063201904 -0.06990051zm1.6245728 -1.5410461q0.7687683 0.8505249 1.5148926 1.0037079q0.7566223 0.1415863 1.3014526 -0.46118164q0.6914978 -0.76504517 0.458313 -1.6721649l-2.390503 -2.6447449q-0.8303833 -0.24639893 -1.500946 0.49546814q-0.5447998 0.60276794 -0.40631104 1.4515076q0.12799072 0.8370819 1.0231018 1.8274078zm10.430908 -6.6701965q0.11871338 1.383255 -0.8661499 2.4728699q-0.91152954 1.0084839 -1.9200134 0.9591522q-1.0085144 -0.049331665 -2.0404968 -1.1678772l-3.7279053 -4.12442l1.5191956 -1.6807861l3.675293 4.066162q0.8951111 0.9903259 1.7018738 0.09776306q0.76483154 -0.84617615 0.52111816 -1.7649384l-4.033325 -4.462303l1.5192261 -1.6807938l5.6972046 6.3031464l-1.4249268 1.5764618l-0.62109375 -0.59443665zm6.4674377 -5.873703q-0.31536865 -0.11710358 -0.6626892 -0.4086151q0.06604004 1.3017654 -0.8140564 2.275467q-0.8277283 0.91574097 -1.8674316 0.9941559q-1.0292358 0.06681824 -1.7664185 -0.7487488q-0.90563965 -1.001976 -0.71951294 -2.2797775q0.18612671 -1.2778091 1.4328613 -2.680458l0.70199585 -0.77664185l-0.32647705 -0.36117554q-0.38961792 -0.43108368 -0.8308716 -0.45557404q-0.44125366 -0.047729492 -0.8708496 0.42752838q-0.38763428 0.42889404 -0.41812134 0.8820343q-0.030517578 0.4298935 0.2854004 0.7794266l-1.5191956 1.6807861q-0.4949646 -0.54759216 -0.6123352 -1.3497849q-0.11740112 -0.8021927 0.20620728 -1.6728745q0.31307983 -0.8823242 1.0046082 -1.647377q1.0477295 -1.1591644 2.1924133 -1.2605286q1.1447144 -0.10135651 2.1030273 0.95886993l2.474762 2.7379684q0.81088257 0.8971176 1.4415894 1.108078l0.0947876 0.1048584l-1.5296936 1.6923828zm-2.3104248 0.20266724q0.33529663 -0.37093353 0.47073364 -0.847023q0.13546753 -0.47608948 0.018920898 -0.9064026l-0.9793701 -1.0835342l-0.5657654 0.6259537q-1.1420288 1.2634888 -0.42556763 2.2184448l0.08425903 0.09320831q0.28433228 0.3145752 0.6729431 0.30404663q0.3781128 -0.02217102 0.72384644 -0.4046936zm1.6670532 -5.8988724q-1.3058167 -1.4447098 -1.4880066 -3.0140915q-0.18218994 -1.5693741 0.8760376 -2.7401276q0.9324646 -1.031662 2.0882568 -0.88894653l-0.47421265 -0.66374207l1.3725281 -1.5185089l5.5076294 6.093422q0.7477112 0.8272171 0.9600525 1.8040009q0.22283936 0.9884262 -0.11099243 1.986908q-0.31280518 0.9985428 -1.1405029 1.9142838q-0.61816406 0.68390656 -1.4681091 1.0650101q-0.828949 0.38115692 -1.532959 0.2745819l-0.25619507 -1.7671432q1.2081604 0.084754944 2.014923 -0.8078003q0.5971985 -0.66072845 0.60601807 -1.3928375q0.00881958 -0.73210907 -0.59143066 -1.3962097l-0.3053894 -0.33787537q0.0763855 1.2436829 -0.77227783 2.182602q-1.0267639 1.1359863 -2.4557495 0.9460144q-1.4395447 -0.20162201 -2.7664185 -1.669632l-0.063201904 -0.06990814zm1.6245728 -1.5410385q0.7687683 0.8505173 1.5148926 1.0037003q0.7566223 0.1415863 1.3014526 -0.46118164q0.6914978 -0.76504517 0.458313 -1.6721573l-2.390503 -2.6447601q-0.8303833 -0.24638367 -1.500946 0.4954834q-0.5447998 0.6027603 -0.40631104 1.4514999q0.12799072 0.83708954 1.0231018 1.8274155zm10.32962 -5.043518q-1.2467957 1.3794098 -2.801361 1.398262q-1.5545654 0.018859863 -2.839325 -1.4025497l-0.14743042 -0.16311646q-0.8529968 -0.94371796 -1.202179 -2.0487213q-0.34924316 -1.1282425 -0.099609375 -2.1966858q0.23910522 -1.080101 1.0144348 -1.9378815q1.1629944 -1.2866745 2.5602112 -1.2013855q1.4077148 0.07369995 2.7556763 1.5650177l0.6213074 0.6874008l-3.604187 3.987526q0.6314697 0.5363617 1.3351746 0.503479q0.7036743 -0.03287506 1.2694702 -0.65882874q0.88009644 -0.97369385 0.7406616 -2.2175598l1.5758362 0.09741974q0.13867188 0.91846466 -0.17425537 1.8705215q-0.30245972 0.9404602 -1.004425 1.717102zm-4.853821 -4.9759445q-0.450531 0.4984436 -0.42803955 1.149292q0.032989502 0.63925934 0.5178528 1.361145l2.1059265 -2.3299255l-0.12637329 -0.13980865q-0.5159607 -0.5476532 -1.0516968 -0.5607834q-0.5357361 -0.013137817 -1.0176697 0.52008057zm7.5463867 -4.8770523q1.1900024 1.3165512 1.9499817 2.9224243q0.7704773 1.5942764 0.97384644 3.2334442q0.20333862 1.6391602 -0.21414185 2.8001022l-1.104248 -0.57255554q0.1857605 -1.440506 -0.56411743 -3.220665q-0.74990845 -1.780159 -2.2559204 -3.4927216l-0.2738037 -0.3029251q-1.5796509 -1.7476349 -3.2097168 -2.6005783q-1.6300964 -0.85295105 -2.9952087 -0.6708603l-0.5069885 -1.2100372q1.0178528 -0.45035553 2.4678955 -0.23708344q1.4500122 0.19003296 2.8804321 1.0075531q1.4304504 0.81752014 2.6203308 2.0875854l0.23165894 0.25631714z" fill-rule="nonzero"/><path fill="#000000" fill-opacity="0.0" d="m189.92819 324.09448l181.1929 -200.46384l41.722504 46.15995l-181.19289 200.46387z" fill-rule="evenodd"/><path fill="#000000" d="m210.68384 326.86496q-0.30540466 -0.3378601 -0.6729126 -0.28079224q-0.36750793 0.05706787 -1.0808258 0.4734192q-0.72384644 0.4046936 -1.2171936 0.5543823q-1.3329773 0.4494629 -2.133316 -0.43600464q-0.41070557 -0.45437622 -0.5066681 -1.0705872q-0.095947266 -0.6161804 0.15458679 -1.2895203q0.25050354 -0.6965637 0.7953186 -1.2993164q0.54481506 -0.6027832 1.1640015 -0.84506226q0.62965393 -0.25390625 1.2287445 -0.101135254q0.59902954 0.1295166 1.0518494 0.6305237l-1.0477295 1.1591492q-0.34751892 -0.38446045 -0.75709534 -0.35076904q-0.42012024 0.022064209 -0.81825256 0.46255493q-0.3876648 0.42886353 -0.42871094 0.84713745q-0.051589966 0.4065857 0.21168518 0.69784546q0.25274658 0.27963257 0.6622162 0.19943237q0.4199524 -0.09176636 1.0598145 -0.47348022q1.1643677 -0.6823425 1.9731598 -0.6917114q0.8087921 -0.009338379 1.398529 0.64312744q0.6634369 0.7340088 0.53964233 1.7098389q-0.11332703 0.9642334 -0.96199036 1.9031677q-0.58673096 0.6491394 -1.2792969 0.9493103q-0.70310974 0.28857422 -1.3336792 0.14733887q-0.63056946 -0.14123535 -1.1255188 -0.6888428l1.0477295 -1.1591492q0.8530121 0.9437256 1.8588257 -0.1690979q0.377182 -0.41729736 0.43930054 -0.81222534q0.051589966 -0.4066162 -0.22221375 -0.7095337zm-0.496521 -6.9538574l0.93725586 1.0369263l0.6495819 -0.71868896l0.73716736 0.8155823l-0.64959717 0.71868896l1.8955688 2.0971375q0.21061707 0.23303223 0.38920593 0.2451477q0.16807556 4.8828125E-4 0.38809204 -0.24295044q0.16763306 -0.18545532 0.27230835 -0.34786987l0.76875305 0.8505249q-0.19859314 0.42941284 -0.51290894 0.77716064q-1.0582123 1.1707764 -2.1638489 -0.0061035156l-2.042984 -2.260254l-0.55529785 0.61434937l-0.73716736 -0.81555176l0.55529785 -0.6143799l-0.9372406 -1.0369263l1.0058136 -1.112793zm5.210968 -1.5941467q-0.23066711 0.18527222 -0.38781738 0.35916138q-0.5762634 0.6375427 -0.36473083 1.265686l2.4852905 2.7496033l-1.0058289 1.112793l-3.7911072 -4.194336l0.9534302 -1.0548401l0.48425293 0.46621704q-0.22270203 -0.9187012 0.3116455 -1.5098572q0.16763306 -0.18548584 0.3564453 -0.30114746l0.9584198 1.10672zm5.2066803 -0.33114624q0.08618164 0.92996216 -0.5738983 1.6602173q-0.6076813 0.67233276 -1.2799988 0.6471863q-0.6723633 -0.04837036 -1.346344 -0.79403687l-2.4852905 -2.7496338l1.0058289 -1.112793l2.443161 2.7030334q0.6002655 0.664093 1.1345978 0.072906494q0.5133972 -0.56799316 0.3439331 -1.17276l-2.685379 -2.9709778l1.0163116 -1.1243896l3.7911072 4.1943054l-0.9534302 1.0548401l-0.41059875 -0.40789795zm2.948883 -4.0547485q0.2723999 -0.3013916 0.30308533 -0.66156006q0.02015686 -0.37182617 -0.24311829 -0.66308594l0.9534302 -1.0548401q0.37916565 0.44265747 0.4960785 1.035675q0.116867065 0.5697632 -0.06034851 1.1619568q-0.17720032 0.5921631 -0.61724854 1.0790405q-0.80674744 0.8925476 -1.7942505 0.8432617q-0.98753357 -0.072509766 -1.8932037 -1.0744934l-0.06317139 -0.069885254q-0.8845978 -0.97869873 -0.9396057 -2.0596008q-0.05506897 -1.104187 0.75167847 -1.9967346q0.7019806 -0.77664185 1.5422668 -0.79751587q0.82974243 -0.03253174 1.5141907 0.7015381l-0.9534302 1.0548401q-0.2948761 -0.3262329 -0.65200806 -0.32724q-0.36767578 -0.012634277 -0.6505585 0.3003235q-0.3457489 0.38253784 -0.2710724 0.8824463q0.07463074 0.47668457 0.65382385 1.1174927l0.10531616 0.11651611q0.5791931 0.6407776 1.0205841 0.73501587q0.43084717 0.08255005 0.79756165 -0.32315063zm-0.621109 -8.120941l0.93725586 1.0369263l0.64959717 -0.71868896l0.7371521 0.8155823l-0.6495819 0.71868896l1.8955536 2.0971375q0.21061707 0.23303223 0.3892212 0.2451477q0.1680603 4.8828125E-4 0.38807678 -0.24295044q0.16764832 -0.18545532 0.27230835 -0.34786987l0.76875305 0.8505249q-0.19857788 0.42941284 -0.51290894 0.77716064q-1.0582123 1.1707764 -2.1638336 -0.0061035156l-2.0429993 -2.260254l-0.55529785 0.61434937l-0.73716736 -0.81555176l0.55529785 -0.6143799l-0.9372406 -1.0369263l1.0058136 -1.112793zm7.8113556 0.95822144q0.08616638 0.92993164 -0.5738983 1.6602173q-0.6076813 0.67230225 -1.2799988 0.6471863q-0.67237854 -0.04840088 -1.3463593 -0.7940674l-2.4852753 -2.7496033l1.0058136 -1.112793l2.443161 2.703003q0.6002655 0.664093 1.134613 0.07293701q0.51338196 -0.56799316 0.3439331 -1.17276l-2.685379 -2.9710083l1.0162964 -1.1243896l3.7911224 4.194336l-0.9534302 1.0548401l-0.41059875 -0.40789795zm1.3980408 -6.976074q-0.23065186 0.18530273 -0.38781738 0.35916138q-0.57624817 0.6375427 -0.36473083 1.265686l2.4852905 2.7496338l-1.0058136 1.112793l-3.7911224 -4.194336l0.9534302 -1.0548401l0.4842682 0.46621704q-0.22270203 -0.9187012 0.3116455 -1.5098877q0.16763306 -0.18545532 0.35643005 -0.30114746l0.9584198 1.10672zm5.079834 0.8345337q-0.827713 0.91571045 -1.8675995 0.92440796q-1.0398712 0.00869751 -1.8823395 -0.92337036l-0.10531616 -0.11651611q-0.56866455 -0.6291504 -0.8014679 -1.3735657q-0.23280334 -0.7444153 -0.07687378 -1.4528809q0.1663971 -0.72003174 0.6797943 -1.2880249q0.77531433 -0.8577881 1.7103119 -0.7970276q0.9349518 0.037506104 1.8406067 1.0394592l0.41070557 0.45440674l-2.3993073 2.65448q0.41049194 0.36141968 0.8831482 0.35113525q0.4725952 -0.03353882 0.8497925 -0.45083618q0.58673096 -0.6491394 0.49028015 -1.4745178l1.0505829 0.07269287q0.09590149 0.59295654 -0.10220337 1.2315674q-0.20864868 0.6269531 -0.68011475 1.1485901zm-3.2323914 -3.321167q-0.30384827 0.33615112 -0.28182983 0.77783203q0.021972656 0.418396 0.3487091 0.895813l1.3934784 -1.541687l-0.084243774 -0.0932312q-0.33699036 -0.37283325 -0.6941376 -0.37384033q-0.36766052 -0.012634277 -0.6819763 0.33511353zm4.976883 -3.0362244q-0.56866455 -0.6291504 -0.8014221 -1.3503113q-0.22227478 -0.7327881 -0.055862427 -1.4528198q0.1663971 -0.72003174 0.7007446 -1.3112183q0.7648468 -0.8461914 1.7206879 -0.85513306q0.94532776 -0.020568848 1.8190613 0.80700684l0.26327515 0.29125977q0.8635254 0.9553833 0.9186554 2.0827942q0.04458618 1.1157837 -0.77264404 2.019928q-0.8172302 0.9041443 -1.8362122 0.86639404q-1.0084991 -0.049316406 -1.914154 -1.0513l-0.042129517 -0.04660034zm1.0795441 -1.03125q0.5370636 0.59420776 1.0204773 0.6885376q0.49388123 0.082733154 0.87106323 -0.3345642q0.36669922 -0.40570068 0.2814331 -0.94052124q-0.074783325 -0.54641724 -0.6855774 -1.222168q-0.5370636 -0.59417725 -1.0309448 -0.6769409q-0.49394226 -0.10598755 -0.87112427 0.31134033q-0.36669922 0.40570068 -0.28138733 0.9637451q0.08526611 0.53482056 0.6960602 1.2105713zm4.3181458 -6.9677734q-0.23066711 0.18527222 -0.38781738 0.35916138q-0.5762634 0.6375427 -0.36473083 1.265686l2.4852905 2.7496033l-1.0058289 1.112793l-3.7911072 -4.1943054l0.9534302 -1.0548401l0.4842682 0.46621704q-0.22270203 -0.9187317 0.31163025 -1.5098877q0.16764832 -0.18548584 0.3564453 -0.30114746l0.9584198 1.10672zm6.1026154 -2.7903748q-0.17901611 -0.19805908 -0.47291565 -0.10592651q-0.29396057 0.06890869 -0.7763519 0.4161682q-1.6253662 1.1924133 -2.4994354 0.22540283q-0.5054779 -0.55926514 -0.42337036 -1.395752q0.082092285 -0.8364868 0.7526398 -1.5783691q0.7124634 -0.7882385 1.4895477 -0.8789978q0.7770386 -0.11401367 1.3141174 0.48016357l-1.0162964 1.1243896q-0.21061707 -0.23300171 -0.48373413 -0.23379517q-0.28363037 -0.012420654 -0.58747864 0.323761q-0.25144958 0.27819824 -0.27182007 0.55703735q-0.020355225 0.27886963 0.15866089 0.4769287q0.16850281 0.18640137 0.43096924 0.12902832q0.25193787 -0.069000244 0.71336365 -0.39309692q0.45089722 -0.3357544 0.7971344 -0.50909424q1.1016235 -0.5663147 1.8177185 0.22595215q0.5265503 0.58251953 0.40248108 1.4421387q-0.12413025 0.83639526 -0.82611084 1.6130371q-0.47148132 0.52160645 -1.0066681 0.74090576q-0.5457306 0.2076416 -1.0501556 0.11325073q-0.5044098 -0.09439087 -0.8519287 -0.47888184l0.95344543 -1.0548401q0.28427124 0.29135132 0.6203003 0.24581909q0.3255005 -0.05718994 0.6293335 -0.39334106q0.29336548 -0.32458496 0.3347473 -0.60336304q0.030838013 -0.2904663 -0.14819336 -0.4885254zm2.5295105 -3.847107l0.001876831 0.81347656l1.1584015 1.2816162l-1.0058289 1.112793l-5.391815 -5.965271l1.0058289 -1.112793l2.9907684 3.3088684l-0.05366516 -0.49987793l-0.1734314 -2.3247375l1.2153778 -1.344635l0.20710754 3.2661438l3.6992493 0.8006897l-1.1629791 1.2866821l-2.4908905 -0.6229553zm5.7145386 -2.7804565q-0.82769775 0.91574097 -1.8675842 0.9244385q-1.0398712 0.008666992 -1.8823395 -0.9234009l-0.10531616 -0.11651611q-0.56866455 -0.6291199 -0.8014679 -1.3735352q-0.23280334 -0.7444153 -0.07687378 -1.4528809q0.16641235 -0.72003174 0.6797943 -1.2880249q0.77531433 -0.8577881 1.7103119 -0.7970581q0.93496704 0.037506104 1.8406067 1.0394897l0.41070557 0.45437622l-2.399292 2.65448q0.41049194 0.36141968 0.8831482 0.35113525q0.4725952 -0.03353882 0.84976196 -0.45083618q0.58673096 -0.6491089 0.4902954 -1.4744873l1.0505676 0.07269287q0.09591675 0.592926 -0.10220337 1.2315369q-0.20861816 0.6269531 -0.68011475 1.1485901zm-3.232376 -3.321167q-0.30384827 0.33615112 -0.28181458 0.77783203q0.021972656 0.4184265 0.34869385 0.895813l1.3934937 -1.541687l-0.08425903 -0.09320068q-0.3369751 -0.37283325 -0.6941223 -0.37384033q-0.36767578 -0.012664795 -0.6819916 0.335083zm6.350479 -0.2916565l-1.0162964 1.1243896l-5.391815 -5.965271l1.0162964 -1.1243896l5.391815 5.965271zm2.6388245 -2.7563477q-0.8277283 0.91574097 -1.8676147 0.92440796q-1.039856 0.00869751 -1.8823242 -0.92337036l-0.10531616 -0.11651611q-0.56866455 -0.6291504 -0.80148315 -1.3735657q-0.23278809 -0.7444153 -0.07687378 -1.4528503q0.16641235 -0.72006226 0.6798096 -1.2880554q0.7752991 -0.85775757 1.7102966 -0.7970276q0.93496704 0.037506104 1.8406067 1.0394897l0.41070557 0.45437622l-2.399292 2.65448q0.41049194 0.36141968 0.8831482 0.35113525q0.4725952 -0.03353882 0.8497925 -0.45083618q0.58670044 -0.6491394 0.4902649 -1.4745178l1.0505981 0.07269287q0.09588623 0.59295654 -0.10220337 1.2315674q-0.20864868 0.6269531 -0.68011475 1.1485901zm-3.2323914 -3.321167q-0.30386353 0.33615112 -0.28182983 0.77783203q0.021972656 0.4184265 0.34869385 0.895813l1.3934937 -1.541687l-0.08425903 -0.09320068q-0.3369751 -0.37283325 -0.6941223 -0.37384033q-0.36767578 -0.012664795 -0.6819763 0.335083zm1.7583008 -5.6736145l0.93725586 1.0369263l0.64959717 -0.71868896l0.7371521 0.81555176l-0.64959717 0.71868896l1.8955688 2.097168q0.2106018 0.23303223 0.3892212 0.2451477q0.1680603 4.5776367E-4 0.38809204 -0.24295044q0.16763306 -0.18545532 0.27227783 -0.34786987l0.7687683 0.8505249q-0.19857788 0.42941284 -0.51290894 0.77716064q-1.058197 1.1707458 -2.1638489 -0.0061035156l-2.0429993 -2.2602844l-0.55529785 0.6143799l-0.7371521 -0.8155823l0.55529785 -0.61434937l-0.93725586 -1.0369263l1.0058289 -1.112793zm3.7488098 2.0507812q-0.56866455 -0.6291504 -0.8014221 -1.3503418q-0.22225952 -0.73275757 -0.055877686 -1.4527893q0.16641235 -0.72006226 0.7007446 -1.3112183q0.76486206 -0.8461914 1.7207031 -0.85513306q0.9453125 -0.020568848 1.8190613 0.80700684l0.26327515 0.29125977q0.8635254 0.9553833 0.91864014 2.0827942q0.04458618 1.1157532 -0.77264404 2.0198975q-0.8172302 0.9041443 -1.8362122 0.86642456q-1.0084839 -0.049346924 -1.914154 -1.0513l-0.042114258 -0.04660034zm1.0795288 -1.03125q0.53707886 0.59417725 1.0204773 0.6885376q0.49389648 0.082733154 0.87106323 -0.3345642q0.36669922 -0.40570068 0.28146362 -0.94052124q-0.074798584 -0.54641724 -0.6856079 -1.222168q-0.53704834 -0.59420776 -1.0309448 -0.6769409q-0.493927 -0.10598755 -0.87112427 0.3113098q-0.36669922 0.40570068 -0.28137207 0.96377563q0.08526611 0.53482056 0.6960449 1.2105713zm2.186432 -6.7065125l0.4631958 0.4429016q-0.10733032 -0.9997101 0.57369995 -1.7531738q0.5971985 -0.6607208 1.2486267 -0.5891571q0.64086914 0.059906006 1.3569031 0.8289337l2.4537048 2.7146606l-1.0058289 1.112793l-2.4220886 -2.6797028q-0.32644653 -0.36117554 -0.62057495 -0.36201477q-0.28363037 -0.012420654 -0.60842896 0.34692383q-0.4190979 0.46365356 -0.27053833 1.1148682l2.6748352 2.95932l-1.0058289 1.1128235l-3.7911072 -4.194336l0.9534302 -1.0548401z" fill-rule="nonzero"/><path fill="#0b7743" d="m544.8411 73.552345l0 0c12.754395 -14.110916 33.43341 -14.110916 46.187805 0l0 0l0 0c6.124878 6.7762985 9.565796 15.966934 9.565796 25.550072c0 9.5831375 -3.440918 18.773773 -9.565796 25.550072l-203.7984 225.4736c-12.754425 14.110901 -33.43338 14.110901 -46.187805 0l0 0l0 0c-12.754395 -14.110931 -12.754395 -36.989227 0 -51.10016z" fill-rule="evenodd"/><g filter="url(#shadowFilter-p.2)"><use xlink:href="#p.2" transform="matrix(1.0 0.0 0.0 1.0 0.0 5.333333333333333)"/></g><defs><filter id="shadowFilter-p.2" filterUnits="userSpaceOnUse"><feGaussianBlur in="SourceAlpha" stdDeviation="8.0" result="blur"/><feComponentTransfer in="blur" color-interpolation-filters="sRGB"><feFuncR type="linear" slope="0" intercept="0.0"/><feFuncG type="linear" slope="0" intercept="0.0"/><feFuncB type="linear" slope="0" intercept="0.0"/><feFuncA type="linear" slope="0.549" intercept="0"/></feComponentTransfer></filter></defs><g id="p.2"><path fill="#ffffff" d="m343.18417 322.5939l0 0c0 -13.290283 9.738159 -24.064178 21.750793 -24.064178l0 0c5.7686768 0 11.301086 2.5353394 15.380157 7.0482483c4.079071 4.512909 6.3706665 10.6336975 6.3706665 17.01593l0 0c0 13.290253 -9.738159 24.064148 -21.750824 24.064148l0 0c-12.012634 0 -21.750793 -10.773895 -21.750793 -24.064148z" fill-rule="evenodd"/><path fill="#0b7743" d="m368.92325 328.4539l-7.796875 0l0 -1.546875l3.671875 -3.921875q0.765625 -0.828125 1.125 -1.4375q0.359375 -0.625 0.359375 -1.1875q0 -0.75 -0.390625 -1.1875q-0.375 -0.4375 -1.078125 -0.4375q-0.765625 0 -1.21875 0.53125q-0.4375 0.53125 -0.4375 1.390625l-2.265625 0q0 -1.046875 0.5 -1.90625q0.5 -0.859375 1.40625 -1.34375q0.90625 -0.484375 2.046875 -0.484375q1.765625 0 2.734375 0.84375q0.96875 0.84375 0.96875 2.375q0 0.84375 -0.4375 1.71875q-0.4375 0.875 -1.5 2.046875l-2.578125 2.71875l4.890625 0l0 1.828125z" fill-rule="nonzero"/></g><path fill="#000000" fill-opacity="0.0" d="m365.56305 288.0133l191.90259 -212.31262l32.33844 35.777817l-191.90259 212.3126z" fill-rule="evenodd"/><path fill="#ffffff" d="m394.8208 292.26144q1.148346 1.479126 1.0472107 3.175537q-0.11166382 1.6847534 -1.4527588 3.1684875q-1.4668274 1.6228333 -3.3053894 1.4665527q-1.838623 -0.1795044 -3.5657043 -2.0902405l-0.47387695 -0.524292q-1.1057434 -1.2233582 -1.5605469 -2.58432q-0.45480347 -1.3609619 -0.17416382 -2.650116q0.27011108 -1.3008118 1.2235413 -2.3556519q1.3201294 -1.4605408 2.842987 -1.560852q1.5123291 -0.11193848 2.922821 1.1703796l-1.5715942 1.738739q-0.8105774 -0.7576599 -1.4932556 -0.72473145q-0.68273926 0.00970459 -1.4056702 0.8095398q-0.7857971 0.86935425 -0.6152649 1.9389954q0.17047119 1.0463867 1.3499756 2.3745422l0.5791931 0.6407776q1.2426453 1.3748169 2.1990356 1.5983276q0.9458618 0.21185303 1.7526245 -0.6807251q0.7229309 -0.7998047 0.75268555 -1.5551147q0.029724121 -0.77853394 -0.6234436 -1.617096l1.5715942 -1.738739zm5.53479 -4.911804q-0.45281982 -0.50097656 -0.9988098 -0.4095459q-0.5565491 0.07977295 -1.6370239 0.6926575q-1.0910339 0.6012268 -1.8257446 0.8548279q-2.0047607 0.6567383 -3.2052917 -0.67144775q-0.6213074 -0.68740845 -0.75997925 -1.605896q-0.12820435 -0.9300537 0.24758911 -1.9516602q0.37579346 -1.0216064 1.1930237 -1.9257507q0.8172302 -0.9041443 1.7512207 -1.2850037q0.9339905 -0.38085938 1.8273315 -0.15753174q0.89331055 0.20007324 1.5883484 0.96902466l-1.5715942 1.738739q-0.5265503 -0.58255005 -1.1566772 -0.5378418q-0.6196594 0.03314209 -1.2168884 0.69384766q-0.5762329 0.6375427 -0.6482849 1.2765198q-0.07211304 0.61572266 0.32806396 1.0584412q0.3685608 0.40777588 0.99850464 0.27011108q0.62991333 -0.13769531 1.5740051 -0.6928406q1.7518005 -1.0293274 2.9597473 -1.0375671q1.2184143 -0.019805908 2.1135254 0.97052q0.9899292 1.0951843 0.80422974 2.55896q-0.17523193 1.4521484 -1.4429932 2.8547363q-0.88009644 0.97369385 -1.9294739 1.4123535q-1.049408 0.43862915 -1.9847107 0.23843384q-0.9458618 -0.21185303 -1.6830139 -1.0274048l1.5715942 -1.7387695q1.2637024 1.3981323 2.7724304 -0.27108765q0.5657654 -0.62594604 0.65893555 -1.2183533q0.0826416 -0.60406494 -0.32806396 -1.0584717zm6.5954895 -7.296936q-0.45281982 -0.50097656 -0.99884033 -0.4095459q-0.55651855 0.07977295 -1.6370239 0.6926575q-1.0910339 0.6012268 -1.8257446 0.85479736q-2.0047302 0.6567688 -3.2052612 -0.67144775q-0.6213379 -0.6873779 -0.75997925 -1.6058655q-0.12820435 -0.9300537 0.24758911 -1.9516602q0.37579346 -1.0216064 1.1930237 -1.9257507q0.8172302 -0.9041443 1.7512207 -1.2850037q0.93395996 -0.3808899 1.8273315 -0.15756226q0.89331055 0.20010376 1.5883484 0.9690552l-1.5716248 1.738739q-0.5265198 -0.58255005 -1.1566772 -0.5378418q-0.6196594 0.033111572 -1.2168579 0.69384766q-0.5762634 0.6375427 -0.6483154 1.2764893q-0.07211304 0.61572266 0.32806396 1.0584717q0.3685913 0.40777588 0.99850464 0.27011108q0.62994385 -0.13769531 1.5740051 -0.6928406q1.7518005 -1.0293579 2.9597473 -1.0375671q1.2184448 -0.019805908 2.113556 0.97052q0.9898987 1.0951843 0.8041992 2.5589294q-0.17523193 1.452179 -1.4429626 2.8547668q-0.88009644 0.97369385 -1.9295044 1.412323q-1.0493774 0.43865967 -1.9847107 0.23846436q-0.9458618 -0.21185303 -1.6830139 -1.0274353l1.5715942 -1.738739q1.2637024 1.3981018 2.772461 -0.27108765q0.5657654 -0.62594604 0.65893555 -1.2183533q0.0826416 -0.60406494 -0.32806396 -1.0584717zm4.169586 -7.059723q-1.2110596 -1.3398743 -1.9814148 -2.8876648q-0.77041626 -1.5710144 -0.9841919 -3.175354q-0.21383667 -1.6275635 0.19311523 -2.800171l1.1147766 0.584198q-0.19616699 1.4753418 0.5642395 3.2671509q0.760437 1.7918091 2.350586 3.551117l0.15795898 0.17474365q1.600708 1.770935 3.2203064 2.635498q1.6195679 0.8412781 2.9846191 0.6359558l0.5175171 1.2216797q-1.0389099 0.427063 -2.4679565 0.21383667q-1.4290466 -0.2131958 -2.8174438 -1.0306091q-1.3989563 -0.8290405 -2.578308 -2.0874634l-0.2738037 -0.30291748zm10.349182 -10.214905q1.1483765 1.479126 1.0472412 3.175537q-0.11166382 1.6847534 -1.4527588 3.1684875q-1.4668274 1.6228333 -3.3053894 1.4665833q-1.838623 -0.1795044 -3.5657043 -2.090271l-0.47387695 -0.524292q-1.1057434 -1.2233276 -1.5605469 -2.5842896q-0.45483398 -1.3609619 -0.17419434 -2.6501465q0.27011108 -1.3008118 1.2235413 -2.3556519q1.3201599 -1.4605408 2.8430176 -1.5608215q1.5123291 -0.111968994 2.922821 1.1703491l-1.5715942 1.738739q-0.8105774 -0.7576599 -1.4932556 -0.7247009q-0.68273926 0.009674072 -1.4056702 0.8095093q-0.7857971 0.86938477 -0.6152649 1.9389954q0.17047119 1.0463867 1.3499756 2.3745422l0.5791931 0.6408081q1.2426453 1.3747864 2.1990356 1.5982971q0.9458618 0.21185303 1.752594 -0.6806946q0.7229309 -0.7998352 0.75271606 -1.5551453q0.029724121 -0.77853394 -0.6234741 -1.617096l1.5715942 -1.738739zm6.7709045 -1.8286743q-0.31539917 -0.11709595 -0.6626892 -0.40859985q0.06600952 1.3017578 -0.8140869 2.2754517q-0.82769775 0.91574097 -1.8674316 0.9941406q-1.0292358 0.066833496 -1.7663879 -0.74871826q-0.90567017 -1.0019836 -0.71954346 -2.2797852q0.18612671 -1.277832 1.4328918 -2.680481l0.70196533 -0.77664185l-0.32644653 -0.36117554q-0.38964844 -0.4310608 -0.8308716 -0.4555664q-0.44128418 -0.047729492 -0.8708496 0.42752075q-0.3876648 0.42889404 -0.41812134 0.88204956q-0.030517578 0.42990112 0.2854004 0.77941895l-1.5192261 1.6807861q-0.49493408 -0.5475769 -0.6123352 -1.3497925q-0.11740112 -0.80218506 0.2062378 -1.6728516q0.31307983 -0.8823242 1.0045776 -1.6473846q1.0477295 -1.1591644 2.1924438 -1.2605286q1.1447144 -0.101364136 2.1030273 0.95887756l2.474762 2.7379456q0.81085205 0.89712524 1.4415894 1.1080933l0.0947876 0.1048584l-1.5296936 1.6923828zm-2.3104248 0.20266724q0.3352661 -0.37094116 0.47073364 -0.8470154q0.13546753 -0.47610474 0.018920898 -0.9064026l-0.9793701 -1.0835266l-0.5657959 0.62594604q-1.1420288 1.2634888 -0.4255371 2.2184448l0.08425903 0.09320068q0.28433228 0.3145752 0.6729431 0.30404663q0.37808228 -0.02218628 0.72384644 -0.4046936zm6.273285 -8.082291q-0.2738037 -0.30291748 -0.71466064 -0.16470337q-0.44088745 0.11495972 -1.1749573 0.64746094q-2.4433594 1.771164 -3.749176 0.32644653q-0.7582092 -0.8388672 -0.6350708 -2.0936127q0.123168945 -1.2547455 1.1289978 -2.3675385q1.0791626 -1.1939392 2.244751 -1.3417206q1.1550903 -0.15943909 1.9659729 0.7376709l-1.5192261 1.6807861q-0.32644653 -0.36117554 -0.74661255 -0.36235046q-0.42016602 -0.0011901855 -0.8602295 0.48565674q-0.3876648 0.42889404 -0.41818237 0.85879517q-0.041046143 0.4182434 0.222229 0.70951843q0.25274658 0.2796173 0.65167236 0.18777466q0.3989563 -0.09184265 1.0805664 -0.5896301q0.67108154 -0.5094452 1.2061768 -0.7752228q1.6367188 -0.83210754 2.721405 0.36793518q0.77926636 0.86216736 0.59313965 2.1399689q-0.17562866 1.2662201 -1.2233887 2.4253845q-0.71243286 0.78822327 -1.5204773 1.1229706q-0.818573 0.3230896 -1.5751953 0.18148804q-0.7566223 -0.14157104 -1.2726135 -0.7124634l1.4353943 -1.5880737q0.42111206 0.41955566 0.91467285 0.36283875q0.49349976 -0.079956055 0.96499634 -0.60157776q0.42956543 -0.47525024 0.49160767 -0.8934479q0.06201172 -0.4414215 -0.21179199 -0.74435425zm5.2566833 -4.8137817q0.4190979 -0.46366882 0.44934082 -1.0097809q0.030273438 -0.54611206 -0.3383789 -0.9771271l1.4144592 -1.5648804q0.5791931 0.6408081 0.7492981 1.5244904q0.17004395 0.8604584 -0.100982666 1.7661438q-0.27105713 0.8824463 -0.9206543 1.6011353q-1.2153931 1.3446198 -2.6966553 1.2590942q-1.4812622 -0.08552551 -2.8502808 -1.6001434l-0.09475708 -0.1048584q-1.3163757 -1.4563599 -1.4041443 -3.0835724q-0.08782959 -1.6504669 1.127533 -2.9950867q1.0686646 -1.1823578 2.318573 -1.2136993q1.2393799 -0.04298401 2.2608337 1.0639191l-1.4144287 1.5648651q-0.4527893 -0.4777527 -0.9885254 -0.49087524q-0.5357361 -0.013137817 -0.9653015 0.4621277q-0.5343323 0.59117126 -0.41711426 1.3236389q0.1171875 0.70921326 0.99124146 1.676239l0.15795898 0.17477417q0.8740845 0.96702576 1.5256348 1.1083069q0.6515198 0.11805725 1.1963501 -0.4847107zm7.6437073 -5.9633636q-0.31539917 -0.11709595 -0.6626892 -0.40859985q0.06600952 1.3017578 -0.8140869 2.2754517q-0.82769775 0.91574097 -1.8674316 0.9941559q-1.0292358 0.066833496 -1.7663879 -0.7487335q-0.90567017 -1.0019836 -0.71954346 -2.2797852q0.18612671 -1.2778168 1.4328918 -2.6804657l0.70196533 -0.7766266l-0.32644653 -0.3611908q-0.38964844 -0.43107605 -0.8308716 -0.4555664q-0.44128418 -0.047729492 -0.8708496 0.427536q-0.3876648 0.42887878 -0.41812134 0.88201904q-0.030517578 0.42990112 0.2854004 0.7794342l-1.5192261 1.6807861q-0.49493408 -0.54759216 -0.6123352 -1.3497925q-0.11740112 -0.80218506 0.2062378 -1.6728668q0.31307983 -0.8823242 1.0045776 -1.6473694q1.0477295 -1.1591644 2.1924438 -1.2605286q1.1447144 -0.101364136 2.1030273 0.9588623l2.474762 2.7379608q0.81085205 0.89712524 1.4415894 1.1080933l0.0947876 0.1048584l-1.5296936 1.6923676zm-2.3104248 0.20266724q0.3352661 -0.3709259 0.47073364 -0.8470154q0.13543701 -0.47608948 0.018920898 -0.9064026l-0.9793701 -1.0835266l-0.5657959 0.62594604q-1.1420288 1.2634888 -0.4255371 2.2184448l0.08425903 0.09321594q0.28433228 0.31455994 0.6729431 0.30404663q0.37808228 -0.02218628 0.72384644 -0.40470886zm1.6460876 -5.8756866q-1.3268738 -1.4680023 -1.5195007 -3.0025482q-0.19259644 -1.5345459 0.8341675 -2.6705322q0.8277283 -0.91574097 1.993866 -0.83110046l-2.9065247 -3.2156525l1.5191956 -1.6807861l8.087738 8.9479065l-1.3725281 1.5184937l-0.68414307 -0.5946045q0.15032959 1.4182129 -0.7402344 2.4035034q-0.9953613 1.1011963 -2.3928528 0.899704q-1.40802 -0.21315002 -2.8191833 -1.7743835zm1.6350708 -1.5526276q0.8003235 0.8854675 1.5045166 1.0617828q0.7041321 0.15306091 1.2279968 -0.42652893q0.70196533 -0.77664185 0.39508057 -1.7653046l-2.2430725 -2.4816437q-0.8831482 -0.35113525 -1.585144 0.4255066q-1.0896301 1.2055359 0.70062256 3.1861877zm9.139893 -3.9602814l-1.5192261 1.6807861l-5.6972046 -6.3031464l1.5191956 -1.6807861l5.697235 6.3031464zm-8.774567 -6.1607513q-0.34753418 -0.3844757 -0.34866333 -0.87257385q0.0093688965 -0.49967957 0.40750122 -0.9401703q0.3876648 -0.42889404 0.83932495 -0.4392395q0.45162964 -0.010345459 0.7991638 0.37413025q0.34750366 0.38449097 0.32766724 0.8957672q-0.009338379 0.49967957 -0.39700317 0.9285736q-0.37716675 0.41729736 -0.8288269 0.42764282q-0.45166016 0.010345459 -0.7991638 -0.37413025zm5.72287 -3.0692902l0.6948242 0.6759949q-0.15054321 -1.5111847 0.8762512 -2.647171q0.9010315 -0.99687195 1.8781738 -0.88952637q0.96658325 0.095687866 2.0301514 1.2491913l3.685791 4.07782l-1.5191956 1.6807861l-3.6437073 -4.0312195q-0.48440552 -0.53593445 -0.9151001 -0.5487671q-0.43069458 -0.012832642 -0.9126587 0.5203705q-0.6390991 0.7070923 -0.41629028 1.672287l4.0227966 4.450638l-1.5087585 1.6692047l-5.6972046 -6.3031464l1.4249268 -1.5764618zm7.1964417 -1.7635498q-1.3058167 -1.4447174 -1.4880066 -3.0140991q-0.18218994 -1.5693665 0.8760376 -2.7401276q0.9324646 -1.031662 2.0882568 -0.88894653l-0.47421265 -0.66374207l1.3725281 -1.5185089l5.5076294 6.0934296q0.7477112 0.8272095 0.960022 1.8040009q0.22286987 0.9884186 -0.110961914 1.986908q-0.31280518 0.99853516 -1.1405334 1.9142761q-0.61813354 0.6839142 -1.4681091 1.0650177q-0.82891846 0.3811493 -1.5329285 0.2745819l-0.25619507 -1.7671509q1.2081604 0.08476257 2.014923 -0.8078003q0.5971985 -0.6607208 0.60601807 -1.3928375q0.00881958 -0.73210144 -0.59143066 -1.3962097l-0.3053894 -0.33787537q0.0763855 1.2436829 -0.77227783 2.182602q-1.0267944 1.1359863 -2.45578 0.9460144q-1.4395142 -0.20161438 -2.766388 -1.669632l-0.063201904 -0.06990051zm1.6245728 -1.5410461q0.7687683 0.8505249 1.5148926 1.0037079q0.7566223 0.1415863 1.3014526 -0.46118164q0.6914978 -0.76504517 0.458313 -1.6721649l-2.390503 -2.6447601q-0.8303833 -0.24638367 -1.500946 0.4954834q-0.5447998 0.60276794 -0.40631104 1.4515076q0.12799072 0.8370819 1.0231018 1.8274078zm12.330505 -11.940857q-0.45285034 -0.5009918 -0.99884033 -0.40956116q-0.55651855 0.07977295 -1.6370239 0.6926422q-1.0910339 0.6012268 -1.8257446 0.8548279q-2.0047607 0.65675354 -3.2052612 -0.67144775q-0.6213379 -0.68740845 -0.76000977 -1.6058807q-0.12817383 -0.9300537 0.24758911 -1.9516602q0.37579346 -1.0216064 1.1930237 -1.9257507q0.8172302 -0.9041443 1.7512207 -1.2850189q0.9339905 -0.38085938 1.8273315 -0.15753174q0.89331055 0.20007324 1.5883484 0.9690399l-1.5715942 1.738739q-0.5265503 -0.5825348 -1.1566772 -0.5378418q-0.6196594 0.03312683 -1.2168884 0.69384766q-0.5762329 0.6375427 -0.6482849 1.2765045q-0.07211304 0.61572266 0.32806396 1.0584564q0.3685608 0.40777588 0.99850464 0.27009583q0.62991333 -0.13768005 1.5740051 -0.6928253q1.7518005 -1.0293427 2.9597473 -1.0375671q1.2184143 -0.019805908 2.113556 0.97052q0.9898987 1.0951996 0.8041992 2.5589447q-0.17523193 1.4521484 -1.4429932 2.8547363q-0.88009644 0.9737091 -1.9294739 1.4123535q-1.049408 0.4386444 -1.9847107 0.2384491q-0.9458618 -0.21185303 -1.6830139 -1.02742l1.5715942 -1.7387543q1.2637024 1.3981171 2.7724304 -0.27108765q0.5657654 -0.62594604 0.65896606 -1.2183685q0.082611084 -0.60406494 -0.32806396 -1.0584412zm-0.73309326 -10.443726l1.4006042 1.5495758l0.9638977 -1.0664368l1.116272 1.2350006l-0.9638977 1.0664215l2.8433228 3.145752q0.3159485 0.34953308 0.5680847 0.37347412q0.26263428 0.012374878 0.5979004 -0.35856628q0.25146484 -0.27819824 0.40841675 -0.54504395l1.1583862 1.281601q-0.31362915 0.64990234 -0.7850952 1.171524q-1.5925598 1.7619324 -3.245758 0.0024719238l-3.0644836 -3.3904114l-0.82769775 0.91574097l-1.116272 -1.2350006l0.82769775 -0.91574097l-1.4006042 -1.5495758l1.5192261 -1.6807861zm8.867981 1.1174011l-2.4906616 -5.073868l1.6239929 -1.7967072l4.2977295 9.808807l0.1796875 0.4769745q0.6133423 1.7913971 -0.5600891 3.0896606q-0.32479858 0.35934448 -0.7758789 0.62535095l-1.1478577 -1.2699432l0.23049927 -0.25502014q0.42956543 -0.4752655 0.5022278 -0.858551q0.09362793 -0.38323975 -0.09649658 -0.84861755l-0.2852478 -0.70970154l-7.6984863 -4.13562l1.6239929 -1.7967072l4.596588 2.7439423zm7.020294 -2.9900818l-1.5191956 1.6807861l-8.087738 -8.947891l1.5192261 -1.6807861l8.0877075 8.947891zm3.966217 -4.155014q-1.2468262 1.3794098 -2.801361 1.3982697q-1.5545654 0.018844604 -2.839325 -1.4025574l-0.14743042 -0.16311646q-0.8529968 -0.9437256 -1.202179 -2.0487213q-0.34924316 -1.1282349 -0.099609375 -2.1966858q0.23910522 -1.0800934 1.0144348 -1.9378815q1.1629639 -1.2866669 2.5602112 -1.2013855q1.4077148 0.07369995 2.7556763 1.5650177l0.6213074 0.6873932l-3.604187 3.9875336q0.6314697 0.5363617 1.3351746 0.503479q0.7036743 -0.03288269 1.2694702 -0.65882874q0.88009644 -0.97369385 0.7406616 -2.2175598l1.5758362 0.09741211q0.13867188 0.9184723 -0.17425537 1.8705292q-0.30245972 0.9404602 -1.004425 1.717102zm-4.8538513 -4.975952q-0.4505005 0.4984436 -0.42800903 1.149292q0.032989502 0.63926697 0.5178528 1.361145l2.1059265 -2.3299255l-0.12637329 -0.13980103q-0.5159607 -0.5476532 -1.0516968 -0.560791q-0.5357361 -0.013122559 -1.0177002 0.52008057zm12.653931 -8.337372q-0.45285034 -0.5009918 -0.99884033 -0.40956116q-0.55651855 0.07977295 -1.6370239 0.6926575q-1.0910339 0.60121155 -1.8257446 0.8548126q-2.0047607 0.65675354 -3.2052612 -0.67144775q-0.6213379 -0.68740845 -0.76000977 -1.6058655q-0.12817383 -0.93006897 0.24761963 -1.9516754q0.37576294 -1.0216064 1.1929932 -1.9257507q0.8172302 -0.9041443 1.7512207 -1.2850189q0.9339905 -0.38085938 1.8273315 -0.15753174q0.89331055 0.20007324 1.5883484 0.9690399l-1.5715942 1.738739q-0.5265503 -0.5825348 -1.1566772 -0.53782654q-0.6196594 0.033111572 -1.2168579 0.6938324q-0.5762634 0.6375427 -0.6483154 1.2765045q-0.07211304 0.61572266 0.32806396 1.0584564q0.3685608 0.40777588 0.99850464 0.27009583q0.62991333 -0.1376648 1.5740051 -0.6928253q1.7518005 -1.0293427 2.9597473 -1.0375671q1.2184143 -0.019805908 2.113556 0.97052q0.9898987 1.0951996 0.8041992 2.5589447q-0.17523193 1.4521484 -1.4429932 2.8547363q-0.88009644 0.9737091 -1.9294739 1.4123535q-1.049408 0.4386444 -1.9847107 0.2384491q-0.9458618 -0.21185303 -1.6830139 -1.02742l1.5715942 -1.738739q1.2637024 1.3981018 2.7724304 -0.2711029q0.5657959 -0.62594604 0.65896606 -1.2183533q0.0826416 -0.6040802 -0.32806396 -1.0584564zm0.95355225 -7.8358154q-0.12942505 -1.4646454 0.7821045 -2.473114q1.8439941 -2.0401306 4.0237427 0.30187988l3.6542053 4.042862l-1.5191956 1.6807861l-3.612091 -3.9962463q-0.48443604 -0.5359497 -0.9256592 -0.56044006q-0.4517517 -0.036132812 -0.9337158 0.49708557q-0.6705322 0.74186707 -0.4479065 1.6373291l4.054413 4.4855957l-1.5192261 1.6807861l-8.0877075 -8.947891l1.5191956 -1.6808014l3.0118408 3.3321686zm12.316254 -2.1616669q-1.2468262 1.3794098 -2.801361 1.3982544q-1.5545349 0.018859863 -2.839325 -1.4025421l-0.14743042 -0.16311646q-0.8529968 -0.9437256 -1.202179 -2.0487213q-0.34924316 -1.1282501 -0.099609375 -2.1966858q0.23910522 -1.0801086 1.0144348 -1.9378815q1.1629944 -1.2866821 2.5602112 -1.2013855q1.4077148 0.07369995 2.7556763 1.5650177l0.6213379 0.6873932l-3.6042175 3.9875336q0.6314697 0.5363617 1.3351746 0.503479q0.70370483 -0.03288269 1.2694702 -0.65882874q0.8800659 -0.97369385 0.7406616 -2.2175598l1.5758667 0.09741211q0.13867188 0.9184723 -0.17425537 1.8705292q-0.30249023 0.9404602 -1.0044556 1.717102zm-4.853821 -4.975952q-0.450531 0.4984436 -0.42800903 1.149292q0.032958984 0.63926697 0.51782227 1.361145l2.1059265 -2.3299255l-0.12637329 -0.13980103q-0.5159302 -0.5476532 -1.0516663 -0.560791q-0.5357361 -0.013137817 -1.0177002 0.52008057zm10.653015 -1.440033q-1.2468262 1.3794098 -2.8013306 1.3982697q-1.5545654 0.018859863 -2.8393555 -1.4025574l-0.1473999 -0.16311646q-0.85302734 -0.9437103 -1.2022095 -2.0487213q-0.34921265 -1.1282349 -0.099609375 -2.1966858q0.23913574 -1.0800934 1.0144653 -1.9378815q1.1629639 -1.2866669 2.5601807 -1.2013855q1.4077148 0.07369995 2.7556763 1.5650177l0.6213379 0.68740845l-3.604187 3.9875183q0.6314697 0.5363617 1.335144 0.503479q0.7036743 -0.03286743 1.2694702 -0.65882874q0.88012695 -0.97369385 0.7406616 -2.2175598l1.5758667 0.09742737q0.13867188 0.91845703 -0.17425537 1.8705139q-0.30249023 0.9404602 -1.0044556 1.717102zm-4.853821 -4.975937q-0.4505005 0.4984436 -0.42803955 1.149292q0.03302002 0.6392517 0.5178833 1.361145l2.105896 -2.3299255l-0.12634277 -0.13981628q-0.5159912 -0.5476532 -1.0516968 -0.56077576q-0.5357666 -0.013137817 -1.0177002 0.52008057zm2.6536255 -8.52829l1.4005737 1.5495758l0.9639282 -1.0664368l1.116272 1.2350006l-0.9639282 1.0664215l2.8433838 3.145752q0.31591797 0.34951782 0.5680542 0.37347412q0.26263428 0.012359619 0.5979004 -0.35856628q0.25146484 -0.27819824 0.40838623 -0.54504395l1.1584473 1.281601q-0.31365967 0.64990234 -0.7850952 1.171524q-1.5925903 1.7619324 -3.2457886 0.0024719238l-3.0644531 -3.3904266l-0.82769775 0.91574097l-1.116272 -1.2349854l0.82769775 -0.91574097l-1.4006348 -1.5495758l1.5192261 -1.6807861zm10.400635 0.70336914q-0.2738037 -0.30293274 -0.71466064 -0.16471863q-0.44091797 0.114974976 -1.1749878 0.6474762q-2.4433594 1.7711487 -3.7492065 0.32643127q-0.7581787 -0.8388519 -0.63500977 -2.0935974q0.12310791 -1.2547455 1.1289673 -2.3675385q1.0791626 -1.1939392 2.244751 -1.3417358q1.1550903 -0.15943909 1.9659424 0.73768616l-1.519165 1.6807861q-0.32647705 -0.36117554 -0.74664307 -0.36236572q-0.42016602 -0.0011749268 -0.8602295 0.485672q-0.38763428 0.42887878 -0.41815186 0.8587799q-0.04107666 0.41825867 0.222229 0.70951843q0.25268555 0.27963257 0.65167236 0.18778992q0.39892578 -0.09185791 1.0805664 -0.5896454q0.67108154 -0.50942993 1.2061768 -0.7752075q1.6366577 -0.83210754 2.7213745 0.36793518q0.7792969 0.86216736 0.59313965 2.1399689q-0.17565918 1.2662201 -1.2233887 2.4253845q-0.7124634 0.78822327 -1.5205078 1.1229553q-0.8185425 0.3230896 -1.5751343 0.1815033q-0.75665283 -0.1415863 -1.272644 -0.71247864l1.4353638 -1.5880585q0.42114258 0.41955566 0.91467285 0.36283875q0.49353027 -0.079956055 0.96502686 -0.60157776q0.42956543 -0.4752655 0.49163818 -0.8934479q0.06201172 -0.44143677 -0.21179199 -0.74435425zm3.633606 -7.165848q1.1900024 1.3165588 1.9500122 2.9224243q0.7704468 1.5942688 0.9738159 3.2334442q0.2033081 1.6391602 -0.21417236 2.8000946l-1.104248 -0.5725403q0.18579102 -1.440506 -0.5640869 -3.2206726q-0.74993896 -1.7801514 -2.2559204 -3.4927216l-0.2738037 -0.30291748q-1.5796509 -1.7476501 -3.2097168 -2.600586q-1.630127 -0.85295105 -2.9952393 -0.6708679l-0.506958 -1.210022q1.0178833 -0.45036316 2.4678955 -0.23709106q1.4500122 0.19003296 2.8804321 1.0075531q1.4304199 0.81752014 2.6203003 2.0875854l0.23168945 0.25631714z" fill-rule="nonzero"/><path fill="#000000" fill-opacity="0.0" d="m412.05542 324.09448l181.19293 -200.46384l41.722473 46.15995l-181.1929 200.46387z" fill-rule="evenodd"/><path fill="#000000" d="m430.86798 326.94083q-1.1118774 0.67089844 -1.8680725 0.7152405q-0.7562256 0.021118164 -1.2827759 -0.5614319q-0.6107788 -0.67575073 -0.51846313 -1.6400452q0.08175659 -0.97595215 0.84661865 -1.8221436q0.52386475 -0.57958984 1.1430969 -0.798645q0.6087036 -0.23068237 1.1867676 -0.07800293q0.588562 0.14111328 1.0097961 0.60717773l-0.67056274 0.7418518q-0.4633484 -0.5126343 -1.019989 -0.4793396q-0.5566406 0.033294678 -1.0909729 0.6244507q-0.49243164 0.5448303 -0.5541687 1.1024475q-0.05126953 0.546051 0.3383789 0.97714233q0.3053894 0.33789062 0.78848267 0.29275513q0.47253418 -0.056762695 1.2802124 -0.5541992q0.81814575 -0.5090332 1.3955078 -0.6584778q0.566864 -0.1611023 1.0293579 -0.020324707q0.46243286 0.117492676 0.8520813 0.548584q0.6213379 0.68740845 0.51849365 1.6400452q-0.1133728 0.9410095 -0.9201355 1.8335571q-0.52386475 0.57958984 -1.174469 0.85665894q-0.66116333 0.2654419 -1.2601318 0.15914917q-0.588501 -0.11785889 -1.0413208 -0.61886597l0.6705322 -0.7418518q0.4633789 0.5126343 1.0724487 0.4446106q0.6090088 -0.09124756 1.1748047 -0.7171936q0.5343323 -0.591156 0.6065979 -1.1371765q0.06173706 -0.5576172 -0.30682373 -0.9654236q-0.37911987 -0.4194336 -0.841156 -0.35098267q-0.47253418 0.056762695 -1.3641357 0.60043335zm1.0730896 -6.5932007l0.9266968 1.0252686l0.70199585 -0.77664185l0.49493408 0.5476074l-0.70196533 0.7766113l2.3589172 2.6098328q0.22116089 0.24465942 0.4312744 0.26849365q0.21014404 0.023834229 0.4406433 -0.23117065q0.104766846 -0.11593628 0.26171875 -0.38278198l0.5265503 0.58255005q-0.17773438 0.35977173 -0.4187317 0.6263733q-0.42956543 0.47525024 -0.9128418 0.42739868q-0.48330688 -0.047851562 -0.9677429 -0.58380127l-2.3589172 -2.6098022l-0.6914978 0.7650757l-0.49493408 -0.5476074l0.6914978 -0.76504517l-0.9267273 -1.0252686l0.63912964 -0.7070923zm6.4709167 1.1828918l-1.9737244 -4.107849l0.6914978 -0.76504517l2.8721313 6.5159607q0.59155273 1.4427185 -0.17330933 2.28891l-0.13626099 0.1274414l-0.29364014 0.2083435l-0.5265198 -0.58255005l0.19915771 -0.17373657q0.32479858 -0.35934448 0.36602783 -0.70788574q0.05166626 -0.36010742 -0.18057251 -0.87210083l-0.24298096 -0.5933533l-5.1005554 -2.6524048l0.7124634 -0.7882385l3.7862854 2.1025085zm3.7943115 -2.1006775l-0.64959717 0.71865845l-5.391815 -5.9652405l0.64959717 -0.71868896l5.391815 5.965271zm2.6669006 -2.787445q-0.76486206 0.8461914 -1.7522888 0.8201599q-0.9979553 -0.03768921 -1.8404236 -0.9697571l-0.11584473 -0.12814331q-0.56866455 -0.6291504 -0.8014221 -1.3503418q-0.22229004 -0.73275757 -0.087371826 -1.4412537q0.13491821 -0.7085266 0.5749817 -1.1953735q0.7438965 -0.82299805 1.6474609 -0.727478q0.8930359 0.083862305 1.7986755 1.085846l0.26327515 0.29125977l-2.5564575 2.8283691q0.5791321 0.6175537 1.2409973 0.6542969q0.65130615 0.025054932 1.1227722 -0.4965515q0.34576416 -0.38253784 0.43936157 -0.78900146q0.10406494 -0.41809082 0.05050659 -0.87145996l0.7035217 -0.1026001q0.26568604 1.3371887 -0.68774414 2.3920288zm-3.4852905 -3.6705017q-0.3876648 0.42889404 -0.3652649 1.0332336q0.022399902 0.6043701 0.47555542 1.244812l1.8859253 -2.0864868l-0.05267334 -0.058258057q-0.5263672 -0.5128174 -1.0306396 -0.5374756q-0.504303 -0.047912598 -0.91290283 0.4041748zm6.81485 -2.413269q-0.26327515 -0.29125977 -0.59924316 -0.22247314q-0.33602905 0.045532227 -0.93377686 0.47381592q-0.5977478 0.4283142 -1.0385437 0.5897522q-0.43029785 0.14987183 -0.76660156 0.079193115q-0.34683228 -0.082336426 -0.620636 -0.3852539q-0.47387695 -0.524292 -0.40216064 -1.3027039q0.07168579 -0.80166626 0.6793823 -1.4739685q0.6390991 -0.7070923 1.3742371 -0.77474976q0.7350769 -0.090911865 1.2616272 0.49163818l-0.64959717 0.71868896q-0.2738037 -0.30291748 -0.6938782 -0.2576294q-0.40957642 0.033721924 -0.75531006 0.41622925q-0.34576416 0.38253784 -0.38687134 0.77752686q-0.051635742 0.38336182 0.20111084 0.6629944q0.23168945 0.25631714 0.53616333 0.19906616q0.30444336 -0.08050537 0.8916931 -0.49719238q0.5872803 -0.41671753 1.0386047 -0.5665283q0.45126343 -0.17303467 0.80856323 -0.10229492q0.3572998 0.070739746 0.6626892 0.40859985q0.50549316 0.55926514 0.41281128 1.3608704q-0.09274292 0.77835083 -0.7423401 1.4970398q-0.450531 0.4984131 -0.9647217 0.71777344q-0.5142517 0.19610596 -0.99765015 0.10177612q-0.48345947 -0.11755371 -0.8204346 -0.49038696l0.6390991 -0.7070923q0.3474121 0.33798218 0.7779541 0.2810974q0.430542 -0.056884766 0.8286743 -0.4973755q0.36669922 -0.40570068 0.43930054 -0.81225586q0.07260132 -0.40652466 -0.18014526 -0.6861572zm2.169281 -4.427246q-0.558136 -0.6175232 -0.7803955 -1.3502808q-0.2328186 -0.7444153 -0.087371826 -1.4412842q0.14544678 -0.6968384 0.64837646 -1.2532349q0.76483154 -0.8461914 1.773407 -0.7736206q1.0190125 0.06097412 1.914154 1.0513l0.042114258 0.04660034q0.5476074 0.60583496 0.780365 1.3270264q0.23272705 0.7211609 0.08734131 1.4412537q-0.14544678 0.6968689 -0.658844 1.2648621q-0.76483154 0.8461914 -1.7838745 0.7852173q-1.0085449 -0.0725708 -1.8931274 -1.051239l-0.042144775 -0.04660034zm0.72332764 -0.637146q0.63183594 0.69906616 1.3043213 0.7939148q0.67248535 0.09487915 1.154419 -0.43832397q0.49243164 -0.5448303 0.40670776 -1.2888184q-0.09628296 -0.75564575 -0.7913208 -1.5245972q-0.63186646 -0.69906616 -1.3148193 -0.78234863q-0.6830139 -0.10650635 -1.1649475 0.42669678q-0.4819641 0.53323364 -0.39620972 1.2772217q0.08572388 0.74398804 0.80184937 1.5362549zm4.068268 -7.506897q-0.16775513 0.13897705 -0.3458557 0.33602905q-0.6286316 0.6955261 -0.32208252 1.5447388l2.6959229 2.982605l-0.63912964 0.7070923l-3.7911072 -4.1943054l0.6286316 -0.6954956l0.44226074 0.46609497q-0.19116211 -0.90701294 0.3850708 -1.5445557q0.18859863 -0.20864868 0.34603882 -0.2662964l0.60025024 0.664093zm6.621063 -1.2434998q0.34576416 -0.38250732 0.38659668 -0.8937378q0.051330566 -0.52279663 -0.23318481 -0.9071045l0.60769653 -0.67233276q0.315979 0.37277222 0.40130615 0.93084717q0.08529663 0.55804443 -0.0814209 1.1386414q-0.15625 0.56900024 -0.5439148 0.9978943q-0.76483154 0.8461914 -1.7418518 0.78533936q-0.9770813 -0.084106445 -1.8721924 -1.0744324l-0.10531616 -0.11651611q-0.558136 -0.6174927 -0.7908325 -1.3154297q-0.23269653 -0.697937 -0.08718872 -1.3715515q0.14544678 -0.6968689 0.658844 -1.2648621q0.6286316 -0.6954956 1.4373779 -0.72805786q0.8086853 -0.055847168 1.4404297 0.5967407l-0.60769653 0.67230225q-0.4000244 -0.37301636 -0.8831482 -0.35113525q-0.4831848 -0.0013427734 -0.84988403 0.4043579q-0.49243164 0.5447998 -0.40679932 1.2423096q0.07510376 0.68588257 0.7490845 1.4315186l0.12637329 0.13983154q0.6529236 0.7223511 1.2833557 0.81710815q0.6199341 0.083099365 1.1123657 -0.46173096zm3.3968506 -2.7328186l-0.64959717 0.71865845l-5.391815 -5.9652405l0.64959717 -0.71868896l5.391815 5.965271zm-1.0731812 -3.0769043q-0.558136 -0.6174927 -0.780426 -1.3502502q-0.23278809 -0.7444153 -0.08734131 -1.4412842q0.14544678 -0.6968689 0.64834595 -1.2532654q0.76486206 -0.8461914 1.773407 -0.7736206q1.019043 0.06097412 1.914154 1.0513l0.042114258 0.04660034q0.5476074 0.6058655 0.780365 1.3270264q0.23275757 0.7211914 0.087371826 1.4412842q-0.1454773 0.6968689 -0.658844 1.2648621q-0.76486206 0.8461914 -1.7838745 0.78518677q-1.0085754 -0.0725708 -1.893158 -1.051239l-0.042114258 -0.04660034zm0.7232971 -0.6371155q0.63186646 0.69903564 1.3043213 0.7939148q0.67248535 0.09484863 1.1544495 -0.4383545q0.49243164 -0.5447998 0.40667725 -1.2888184q-0.09628296 -0.75564575 -0.7913208 -1.5245972q-0.63183594 -0.69906616 -1.3147888 -0.7823181q-0.6830139 -0.106536865 -1.164978 0.42669678q-0.4819641 0.5332031 -0.39620972 1.2771912q0.085754395 0.74401855 0.80184937 1.5362854zm1.6089172 -8.118164l0.9267273 1.0252991l0.70199585 -0.77664185l0.49493408 0.5475769l-0.70196533 0.77664185l2.3589172 2.6098022q0.22113037 0.24468994 0.4312744 0.26852417q0.21014404 0.023834229 0.4406433 -0.23120117q0.104766846 -0.11590576 0.26171875 -0.38275146l0.5265503 0.58255005q-0.1777649 0.3597412 -0.4187317 0.6263733q-0.42956543 0.47525024 -0.9128723 0.42739868q-0.48327637 -0.047851562 -0.9677124 -0.58380127l-2.3589172 -2.6098022l-0.6914978 0.76504517l-0.4949646 -0.5475769l0.6914978 -0.76504517l-0.9266968 -1.0252991l0.6390991 -0.7070923zm3.4832153 -0.80111694q-0.09698486 -1.0578003 0.59454346 -1.8228455q1.194397 -1.3214417 2.5633545 0.16992188l2.5063477 2.7729187l-0.64959717 0.71868896l-2.5063477 -2.7729187q-0.41070557 -0.45437622 -0.79937744 -0.46710205q-0.37820435 -0.02432251 -0.76586914 0.40457153q-0.31430054 0.3477478 -0.3867798 0.80078125q-0.06201172 0.44143677 0.07559204 0.89505005l2.706421 2.9942627l-0.6390991 0.7070923l-5.391815 -5.9652405l0.6390991 -0.7070923l2.0535278 2.2719116zm8.269653 -1.5993652q-0.76486206 0.8461914 -1.7522888 0.8201599q-0.99798584 -0.03768921 -1.8404541 -0.9697571l-0.11584473 -0.12814331q-0.56866455 -0.6291504 -0.8014221 -1.3503418q-0.22225952 -0.73275757 -0.08734131 -1.4412537q0.13491821 -0.7085266 0.5749817 -1.1953735q0.74386597 -0.82299805 1.6474304 -0.727478q0.8930359 0.083862305 1.798706 1.085846l0.26327515 0.29125977l-2.5564575 2.8283691q0.5791321 0.6175537 1.2409668 0.65426636q0.65130615 0.02508545 1.1228027 -0.496521q0.34573364 -0.38253784 0.43933105 -0.78900146q0.10409546 -0.41809082 0.05050659 -0.87145996l0.70355225 -0.1026001q0.26568604 1.3371887 -0.68774414 2.3920288zm-3.485321 -3.6705017q-0.38763428 0.42886353 -0.36523438 1.0332336q0.022399902 0.6043701 0.4755249 1.244812l1.8859253 -2.0864868l-0.052642822 -0.058258057q-0.5263977 -0.5128174 -1.0306396 -0.5374756q-0.504303 -0.047912598 -0.91293335 0.4041748zm6.81485 -2.413269q-0.26324463 -0.29125977 -0.59924316 -0.22250366q-0.33599854 0.045562744 -0.93374634 0.47384644q-0.5977478 0.4283142 -1.0385437 0.5897522q-0.43032837 0.14987183 -0.76660156 0.079193115q-0.34683228 -0.082336426 -0.620636 -0.3852539q-0.47390747 -0.524292 -0.40216064 -1.3027039q0.07168579 -0.80166626 0.6793518 -1.4739685q0.63912964 -0.7070923 1.3742676 -0.77474976q0.7350769 -0.090911865 1.2615967 0.49163818l-0.64959717 0.71868896q-0.2738037 -0.30291748 -0.69384766 -0.2576294q-0.40957642 0.033721924 -0.7553406 0.41622925q-0.34573364 0.38253784 -0.38684082 0.77752686q-0.051635742 0.38336182 0.20111084 0.6629944q0.23165894 0.25631714 0.53616333 0.19906616q0.30441284 -0.08050537 0.8916931 -0.49719238q0.58724976 -0.41671753 1.0385742 -0.5665283q0.45129395 -0.17303467 0.80859375 -0.10229492q0.3572998 0.070739746 0.6626892 0.40859985q0.50549316 0.5592346 0.41278076 1.3608398q-0.09274292 0.77838135 -0.7423096 1.4970398q-0.450531 0.4984436 -0.9647217 0.71780396q-0.5142517 0.19610596 -0.99765015 0.10177612q-0.48345947 -0.11758423 -0.8204651 -0.49041748l0.63912964 -0.70706177q0.3474121 0.33798218 0.7779541 0.2810974q0.43051147 -0.056884766 0.8286743 -0.4973755q0.36669922 -0.40570068 0.43930054 -0.81225586q0.0725708 -0.40652466 -0.18017578 -0.6861572zm6.600525 -5.0655518q-0.16821289 -0.07019043 -0.4944458 -0.33840942q0.023345947 1.0227356 -0.5948181 1.7066345q-0.55529785 0.61434937 -1.237915 0.6705322q-0.6826782 0.032958984 -1.1671143 -0.5029907q-0.5897217 -0.6524658 -0.46566772 -1.512085q0.12408447 -0.85961914 0.93081665 -1.7521667l0.6286621 -0.6954956l-0.30541992 -0.33789062q-0.3369751 -0.37280273 -0.736145 -0.37393188q-0.3991394 -0.0011291504 -0.7972717 0.43933105q-0.34576416 0.38253784 -0.3972473 0.8356323q-0.06201172 0.44140625 0.19073486 0.7210388l-0.64959717 0.71868896q-0.28433228 -0.3145752 -0.34851074 -0.8260803q-0.07473755 -0.52316284 0.123565674 -1.0688171q0.18780518 -0.5572815 0.596405 -1.0093689q0.64959717 -0.71865845 1.3427734 -0.7632141q0.7036438 -0.056121826 1.2933044 0.5730896l1.7481384 1.9340515q0.5159912 0.57089233 0.96813965 0.7697449l0.052642822 0.058258057l-0.6810303 0.7534485zm-1.5636292 0.6347656q0.303833 -0.33618164 0.41830444 -0.8123169q0.11444092 -0.47613525 -0.023040771 -0.88327026l-0.7792969 -0.8621826l-0.5029297 0.5563965q-1.1839294 1.3098755 -0.4888916 2.078827q0.3053894 0.33789062 0.6835022 0.31570435q0.37802124 -0.045410156 0.6923523 -0.39315796zm-0.05899048 -7.228241l0.49484253 0.50112915q-0.118011475 -1.0811157 0.58395386 -1.8577576q1.1944275 -1.3214417 2.563385 0.16992188l2.5063477 2.7729187l-0.64959717 0.71868896l-2.5063477 -2.7729187q-0.41070557 -0.45437622 -0.79937744 -0.46710205q-0.37820435 -0.024291992 -0.76586914 0.40457153q-0.31433105 0.34777832 -0.3868103 0.80078125q-0.06201172 0.44143677 0.07559204 0.89505005l2.7064514 2.9942932l-0.63912964 0.7070923l-3.7911072 -4.194336l0.607666 -0.67233276zm5.041748 -1.4535217q-0.8740845 -0.9670105 -0.9920044 -2.0016174q-0.12844849 -1.0462952 0.54208374 -1.788147q0.6600647 -0.73028564 1.5005798 -0.6581726l-1.9798279 -2.190384l0.64959717 -0.7186737l5.391815 5.965271l-0.5971985 0.66070557l-0.44213867 -0.41958618q0.09677124 0.96481323 -0.5947571 1.7298584q-0.64959717 0.71868896 -1.6057434 0.5881653q-0.9562378 -0.15377808 -1.8197632 -1.1091614l-0.052642822 -0.058258057zm0.7128296 -0.6255188q0.6423645 0.71069336 1.2728882 0.82870483q0.63046265 0.09472656 1.0914612 -0.4152832q0.61816406 -0.68392944 0.3534546 -1.6027527l-1.7481384 -1.9340515q-0.83044434 -0.2696228 -1.4276428 0.39111328q-0.47146606 0.52160645 -0.37530518 1.2307739q0.106658936 0.6975708 0.8332825 1.5014954zm8.34903 -7.372864q-0.26327515 -0.29127502 -0.59924316 -0.22250366q-0.33602905 0.045547485 -0.93374634 0.47384644q-0.5977478 0.4282837 -1.0385437 0.58973694q-0.43032837 0.14987183 -0.7666321 0.079193115q-0.34680176 -0.08232117 -0.62060547 -0.3852539q-0.47390747 -0.524292 -0.40216064 -1.3027039q0.07168579 -0.80166626 0.6793518 -1.4739838q0.63912964 -0.707077 1.3742371 -0.7747345q0.7350769 -0.09089661 1.2616272 0.49163818l-0.64959717 0.71868896q-0.2738037 -0.30291748 -0.69384766 -0.2576294q-0.40957642 0.033721924 -0.7553406 0.4162445q-0.34573364 0.38252258 -0.38684082 0.77752686q-0.051635742 0.38334656 0.20108032 0.6629791q0.23168945 0.25631714 0.53616333 0.19906616q0.30444336 -0.08049011 0.89172363 -0.49719238q0.58724976 -0.41671753 1.0385742 -0.56651306q0.45129395 -0.17304993 0.80859375 -0.10231018q0.3572998 0.070739746 0.6626892 0.4086151q0.50546265 0.5592346 0.41278076 1.3608398q-0.09274292 0.7783661 -0.7423401 1.4970398q-0.4505005 0.4984436 -0.9647217 0.71780396q-0.5142212 0.19610596 -0.9976196 0.10177612q-0.48345947 -0.11758423 -0.8204651 -0.49041748l0.63912964 -0.7070923q0.3474121 0.33799744 0.7779541 0.28111267q0.43051147 -0.056900024 0.8286438 -0.4973755q0.36672974 -0.40571594 0.43930054 -0.8122406q0.07260132 -0.40653992 -0.18014526 -0.6861572zm0.4003601 -2.4701996q-0.558136 -0.6174927 -0.7803955 -1.3502655q-0.2328186 -0.7444153 -0.087371826 -1.4412689q0.14544678 -0.6968689 0.64837646 -1.2532654q0.76483154 -0.8461914 1.7733765 -0.7736206q1.019043 0.06098938 1.914154 1.0513153l0.042144775 0.04660034q0.5476074 0.6058502 0.780365 1.3270111q0.23272705 0.72117615 0.08734131 1.4412842q-0.14544678 0.69685364 -0.658844 1.2648468q-0.76483154 0.8461914 -1.7838745 0.7852173q-1.0085449 -0.0725708 -1.893158 -1.0512543l-0.042114258 -0.04660034zm0.7232971 -0.63713074q0.63186646 0.69906616 1.3043518 0.79393005q0.67245483 0.09486389 1.154419 -0.4383545q0.49243164 -0.5447998 0.40670776 -1.2888031q-0.09628296 -0.75564575 -0.7913208 -1.5246124q-0.63186646 -0.6990509 -1.3148193 -0.7823334q-0.6830139 -0.10650635 -1.1649475 0.42669678q-0.4819641 0.5332184 -0.39620972 1.2772217q0.08572388 0.7440033 0.80181885 1.5362549zm2.2737122 -6.803055l0.43173218 0.45443726q-0.0758667 -1.011261 0.62609863 -1.7879028q0.79629517 -0.8809662 1.6899719 -0.5181885q-0.08520508 -0.51156616 0.05014038 -1.0341339q0.13534546 -0.522583 0.5439453 -0.97465515q1.2363281 -1.3678131 2.584198 0.07701111l2.5379333 2.8078766l-0.63912964 0.7070923l-2.5063477 -2.7729187q-0.400177 -0.44273376 -0.7888489 -0.45544434q-0.3887329 -0.035964966 -0.82876587 0.45088196q-0.3562317 0.39411926 -0.37606812 0.9053955q-0.03036499 0.49961853 0.3067932 0.94218445l2.5168762 2.7845612l-0.64959717 0.71868896l-2.4852905 -2.7496185q-0.8319397 -0.9204254 -1.6387024 -0.027862549q-0.6390991 0.7070923 -0.32199097 1.5679474l2.7696228 3.0641937l-0.64959717 0.7186737l-3.7911377 -4.1943207l0.61816406 -0.6838989zm11.081085 -3.7078552q-0.76483154 0.8461914 -1.7522583 0.8201599q-0.99798584 -0.03767395 -1.8404541 -0.9697571l-0.11584473 -0.12815857q-0.56866455 -0.6291504 -0.8014221 -1.3503113q-0.22225952 -0.7327728 -0.08734131 -1.4412842q0.13491821 -0.70851135 0.5749512 -1.1953583q0.7438965 -0.8230133 1.6474915 -0.7274933q0.8930054 0.083862305 1.798645 1.085846l0.26330566 0.29127502l-2.5564575 2.8283691q0.57910156 0.6175537 1.2409668 0.6542816q0.65130615 0.02508545 1.1228027 -0.4965515q0.34570312 -0.38252258 0.43933105 -0.78900146q0.10406494 -0.4180603 0.05053711 -0.8714447l0.7034912 -0.1026001q0.26568604 1.3371887 -0.68774414 2.3920288zm-3.4852905 -3.670517q-0.3876648 0.42889404 -0.3652649 1.0332642q0.022399902 0.60435486 0.47555542 1.2447968l1.8859253 -2.0864868l-0.05267334 -0.058258057q-0.5263672 -0.5128174 -1.0306396 -0.5374756q-0.50427246 -0.047912598 -0.91290283 0.40415955zm8.106995 -1.6058197l-0.64959717 0.7186737l-3.7911377 -4.1943207l0.64959717 -0.71868896l3.7911377 4.194336zm-5.5040894 -4.5361786q-0.15795898 -0.17475891 -0.16894531 -0.39559937q-0.02154541 -0.23248291 0.16705322 -0.4411316q0.1885376 -0.20864868 0.39868164 -0.18481445q0.21008301 5.950928E-4 0.368042 0.175354q0.15795898 0.17475891 0.1585083 0.40719604q0.011047363 0.2208252 -0.17755127 0.42947388q-0.18859863 0.20864868 -0.3881836 0.19647217q-0.199646 -0.012191772 -0.35760498 -0.18695068zm3.3527222 -1.4723053l0.494812 0.5011139q-0.11804199 -1.0811157 0.5839844 -1.8577423q1.194397 -1.3214569 2.5633545 0.16992188l2.5063477 2.7729187l-0.64959717 0.7186737l-2.5063477 -2.7729187q-0.41070557 -0.45437622 -0.79937744 -0.46710205q-0.37823486 -0.024307251 -0.76586914 0.4045868q-0.31433105 0.3477478 -0.3867798 0.800766q-0.06201172 0.44143677 0.07556152 0.89505005l2.706421 2.9942932l-0.6390991 0.707077l-3.7911377 -4.1943207l0.60772705 -0.6723175zm3.277832 -5.6769867l0.9266968 1.0252686l0.70196533 -0.77664185l0.49493408 0.54759216l-0.70196533 0.77664185l2.3589478 2.6098022q0.22113037 0.24467468 0.4312744 0.2685089q0.21014404 0.023834229 0.4406128 -0.23118591q0.10479736 -0.11590576 0.26171875 -0.38275146l0.5265503 0.5825348q-0.17773438 0.35975647 -0.41870117 0.6263733q-0.42956543 0.47525024 -0.91290283 0.42741394q-0.48327637 -0.047851562 -0.9677124 -0.58380127l-2.3588867 -2.6098022l-0.6915283 0.7650604l-0.49493408 -0.5476074l0.6915283 -0.76504517l-0.9267578 -1.0252838l0.63916016 -0.707077zm7.8171997 1.9536896q-0.76483154 0.8461914 -1.7523193 0.8201752q-0.9979248 -0.03768921 -1.8403931 -0.9697571l-0.11584473 -0.12815857q-0.56866455 -0.6291504 -0.80145264 -1.3503265q-0.222229 -0.73275757 -0.08734131 -1.4412689q0.13494873 -0.70851135 0.5749512 -1.1953583q0.7438965 -0.8230133 1.6474609 -0.7274933q0.8930664 0.083862305 1.798706 1.085846l0.26324463 0.29127502l-2.5564575 2.828354q0.5791626 0.6175537 1.2410278 0.6542969q0.65130615 0.02507019 1.1227417 -0.4965515q0.34576416 -0.38252258 0.4393921 -0.78900146q0.10406494 -0.41807556 0.050476074 -0.8714447l0.70355225 -0.10261536q0.26568604 1.3371887 -0.68774414 2.3920288zm-3.4852905 -3.6705017q-0.3876953 0.42889404 -0.3652954 1.0332489q0.022399902 0.6043701 0.47558594 1.244812l1.8859253 -2.0864868l-0.05267334 -0.058258057q-0.5263672 -0.5128174 -1.0306396 -0.53749084q-0.5043335 -0.04789734 -0.91290283 0.4041748zm4.2471924 -4.442581q-0.16778564 0.13897705 -0.34588623 0.33602905q-0.6286621 0.69551086 -0.32208252 1.5447235l2.6959229 2.9826202l-0.6390991 0.7070923l-3.7911377 -4.1943207l0.6286621 -0.6954956l0.44226074 0.46609497q-0.19116211 -0.9069977 0.3850708 -1.5445404q0.18859863 -0.20864868 0.3460083 -0.26631165l0.60028076 0.6641083zm5.993042 0.47662354q-0.16827393 -0.07020569 -0.49450684 -0.33840942q0.023376465 1.0227203 -0.5947876 1.7066345q-0.55529785 0.61434937 -1.237915 0.6705322q-0.6826782 0.032943726 -1.1671143 -0.503006q-0.5897217 -0.65245056 -0.46569824 -1.5120697q0.12408447 -0.85961914 0.93084717 -1.7521667l0.6286621 -0.6954956l-0.30541992 -0.33789062q-0.3369751 -0.372818 -0.736145 -0.37394714q-0.39916992 -0.0011291504 -0.79730225 0.43936157q-0.34576416 0.38252258 -0.3972168 0.8356018q-0.06201172 0.44143677 0.19073486 0.7210541l-0.64959717 0.7186737q-0.28430176 -0.3145752 -0.34851074 -0.8260803q-0.07476807 -0.52316284 0.123535156 -1.0688019q0.18780518 -0.55729675 0.59643555 -1.0093689q0.64959717 -0.7186737 1.3427734 -0.7632141q0.7036133 -0.056121826 1.2932739 0.5730896l1.748169 1.9340515q0.5159912 0.57089233 0.96813965 0.7697296l0.052612305 0.058258057l-0.68096924 0.75346375zm-1.5636597 0.63475037q0.303833 -0.33616638 0.41827393 -0.81230164q0.11444092 -0.4761505 -0.023010254 -0.8832855l-0.7792969 -0.86216736l-0.5029297 0.55641174q-1.18396 1.309845 -0.4888916 2.0788116q0.30541992 0.33787537 0.6834717 0.31570435q0.37805176 -0.045425415 0.6923828 -0.39317322zm4.1698 -4.5434113q0.34576416 -0.38252258 0.38659668 -0.8937378q0.051330566 -0.5228119 -0.2331543 -0.90711975l0.607666 -0.6723175q0.315979 0.37277222 0.40130615 0.9308319q0.08532715 0.5580597 -0.0814209 1.1386566q-0.15625 0.56900024 -0.5438843 0.997879q-0.76483154 0.8461914 -1.7418823 0.78533936q-0.9770508 -0.084106445 -1.8721924 -1.0744324l-0.105285645 -0.11651611q-0.5581665 -0.6174927 -0.7908325 -1.3154297q-0.23272705 -0.69792175 -0.08721924 -1.3715363q0.14544678 -0.6968689 0.6588745 -1.2648621q0.6286011 -0.6954956 1.4373779 -0.7280731q0.8086548 -0.05583191 1.4404297 0.5967407l-0.60772705 0.6723175q-0.4000244 -0.37301636 -0.8831177 -0.35113525q-0.48321533 -0.0013580322 -0.84991455 0.40434265q-0.49243164 0.54481506 -0.40679932 1.2423248q0.07513428 0.6858673 0.7490845 1.4315186l0.12640381 0.13981628q0.65289307 0.7223511 1.2833252 0.81710815q0.6199341 0.083099365 1.1123657 -0.4617157zm-1.1533203 -8.137909l0.9266968 1.0252686l0.70196533 -0.7766266l0.49499512 0.54759216l-0.70202637 0.77664185l2.3589478 2.6098022q0.22113037 0.24465942 0.4312744 0.26849365q0.21014404 0.023834229 0.44067383 -0.23117065q0.10473633 -0.11592102 0.26171875 -0.38276672l0.52648926 0.58255005q-0.17773438 0.35975647 -0.41870117 0.62635803q-0.42956543 0.47525024 -0.9128418 0.42741394q-0.4833374 -0.047851562 -0.9677124 -0.58380127l-2.3589478 -2.6098022l-0.6914673 0.7650604l-0.49499512 -0.54759216l0.6915283 -0.7650604l-0.9266968 -1.0252686l0.6390991 -0.7070923zm6.8843384 2.8226624l-0.64959717 0.7186737l-3.7910767 -4.1943207l0.64959717 -0.71868896l3.7910767 4.194336zm-5.5040283 -4.5361786q-0.15795898 -0.17475891 -0.16900635 -0.39559937q-0.02154541 -0.23248291 0.16705322 -0.4411316q0.18859863 -0.20864868 0.39874268 -0.18481445q0.21008301 5.950928E-4 0.368042 0.175354q0.15795898 0.17475891 0.1585083 0.40719604q0.010986328 0.2208252 -0.1776123 0.42947388q-0.18859863 0.20864868 -0.3881836 0.19647217q-0.19958496 -0.012191772 -0.35754395 -0.18695068zm6.8983154 1.0362549l-1.97406 -4.2473145l0.6600952 -0.7302704l2.4290771 5.701248l-0.48199463 0.5332184l-5.1636353 -2.675827l0.6600952 -0.7302704l3.8704224 2.1492157zm3.8009033 -2.2477875l-0.64959717 0.71868896l-3.7911377 -4.194336l0.64959717 -0.7186737l3.7911377 4.1943207zm-5.5040894 -4.5361786q-0.15795898 -0.17475891 -0.16894531 -0.3955841q-0.02154541 -0.23249817 0.16705322 -0.44114685q0.18859863 -0.20864868 0.39868164 -0.18481445q0.21008301 5.950928E-4 0.368042 0.175354q0.15795898 0.17477417 0.1585083 0.40719604q0.011047363 0.22084045 -0.17755127 0.42948914q-0.18859863 0.20864868 -0.3881836 0.19645691q-0.199646 -0.012176514 -0.35760498 -0.18695068zm2.6879272 -2.7873688l0.9266968 1.0252838l0.70202637 -0.77664185l0.49493408 0.54759216l-0.70196533 0.77664185l2.3588867 2.6098022q0.22113037 0.24467468 0.4312744 0.2685089q0.21014404 0.023834229 0.44067383 -0.23118591q0.10473633 -0.11592102 0.26171875 -0.38276672l0.5265503 0.58255005q-0.17779541 0.35975647 -0.4187622 0.62635803q-0.42956543 0.4752655 -0.9128418 0.42741394q-0.48327637 -0.047851562 -0.9677124 -0.583786l-2.3589478 -2.6098022l-0.6914673 0.76504517l-0.49499512 -0.54759216l0.6915283 -0.76504517l-0.9266968 -1.0252838l0.6390991 -0.7070923zm6.4709473 1.1829071l-1.9737549 -4.107849l0.6915283 -0.7650604l2.8720703 6.515976q0.59155273 1.4427032 -0.17327881 2.2888947l-0.13623047 0.1274414l-0.29364014 0.20835876l-0.5265503 -0.58255005l0.19915771 -0.17375183q0.3248291 -0.35934448 0.36602783 -0.7078552q0.051696777 -0.36012268 -0.18060303 -0.87210083l-0.24291992 -0.59336853l-5.100586 -2.6524048l0.7124634 -0.78822327l3.786316 2.1024933z" fill-rule="nonzero"/><path fill="#0e9453" d="m768.1075 73.552345l0 0c12.754395 -14.110916 33.43341 -14.110916 46.187805 0l0 0l0 0c6.124878 6.7762985 9.565796 15.966934 9.565796 25.550072c0 9.5831375 -3.440918 18.773773 -9.565796 25.550072l-203.7984 225.4736c-12.754395 14.110901 -33.43335 14.110901 -46.187805 0l0 0l0 0c-12.754395 -14.110931 -12.754395 -36.989227 0 -51.10016z" fill-rule="evenodd"/><g filter="url(#shadowFilter-p.3)"><use xlink:href="#p.3" transform="matrix(1.0 0.0 0.0 1.0 0.0 5.333333333333333)"/></g><defs><filter id="shadowFilter-p.3" filterUnits="userSpaceOnUse"><feGaussianBlur in="SourceAlpha" stdDeviation="8.0" result="blur"/><feComponentTransfer in="blur" color-interpolation-filters="sRGB"><feFuncR type="linear" slope="0" intercept="0.0"/><feFuncG type="linear" slope="0" intercept="0.0"/><feFuncB type="linear" slope="0" intercept="0.0"/><feFuncA type="linear" slope="0.549" intercept="0"/></feComponentTransfer></filter></defs><g id="p.3"><path fill="#ffffff" d="m566.4505 322.5939l0 0c0 -13.290283 9.73822 -24.064178 21.750854 -24.064178l0 0c5.7686768 0 11.301086 2.5353394 15.380127 7.0482483c4.0791016 4.512909 6.3706665 10.6336975 6.3706665 17.01593l0 0c0 13.290253 -9.738159 24.064148 -21.750793 24.064148l0 0c-12.012634 0 -21.750854 -10.773895 -21.750854 -24.064148z" fill-rule="evenodd"/><path fill="#0e9453" d="m586.68964 321.7664l1.203125 0q0.859375 0 1.265625 -0.421875q0.421875 -0.4375 0.421875 -1.15625q0 -0.6875 -0.421875 -1.0625q-0.40625 -0.390625 -1.125 -0.390625q-0.640625 0 -1.078125 0.359375q-0.4375 0.359375 -0.4375 0.921875l-2.265625 0q0 -0.890625 0.484375 -1.59375q0.484375 -0.703125 1.34375 -1.09375q0.859375 -0.40625 1.90625 -0.40625q1.796875 0 2.8125 0.859375q1.03125 0.859375 1.03125 2.375q0 0.78125 -0.484375 1.4375q-0.46875 0.65625 -1.234375 1.015625q0.953125 0.34375 1.421875 1.03125q0.484375 0.6875 0.484375 1.625q0 1.515625 -1.109375 2.4375q-1.109375 0.90625 -2.921875 0.90625q-1.703125 0 -2.796875 -0.890625q-1.078125 -0.90625 -1.078125 -2.390625l2.265625 0q0 0.640625 0.46875 1.046875q0.484375 0.40625 1.1875 0.40625q0.8125 0 1.265625 -0.421875q0.453125 -0.421875 0.453125 -1.125q0 -1.703125 -1.875 -1.703125l-1.1875 0l0 -1.765625z" fill-rule="nonzero"/></g><path fill="#000000" fill-opacity="0.0" d="m588.17615 288.0133l192.53052 -213.00734l32.33844 35.777824l-192.53052 213.00732z" fill-rule="evenodd"/><path fill="#ffffff" d="m609.4137 289.83322l1.5715942 -1.738739l5.307556 5.87204q0.72662354 0.80392456 0.97052 1.7924194q0.2333374 0.97683716 -0.047973633 1.9638367q-0.28137207 0.9869995 -1.0147705 1.7984314q-1.2153931 1.344635 -2.5177002 1.410675q-1.2918701 0.054473877 -2.4187012 -1.1921692l1.5820923 -1.7503357q0.55810547 0.6174927 1.062439 0.6654053q0.50427246 0.024658203 1.0176392 -0.54333496q0.4505005 -0.4984436 0.40704346 -1.1260986q-0.043518066 -0.6509094 -0.6121826 -1.2800598l-5.307556 -5.8720703zm13.764282 1.7355347q-0.31536865 -0.117126465 -0.6627197 -0.40863037q0.06604004 1.3017578 -0.8140259 2.2754517q-0.82769775 0.91574097 -1.8674316 0.99417114q-1.0292358 0.066833496 -1.7664185 -0.7487488q-0.90563965 -1.0019836 -0.71954346 -2.2797852q0.18615723 -1.2778015 1.4329224 -2.6804504l0.70196533 -0.77664185l-0.32647705 -0.36117554q-0.38964844 -0.4310913 -0.8308716 -0.4555664q-0.44128418 -0.047729492 -0.8708496 0.42752075q-0.38763428 0.42889404 -0.41809082 0.88204956q-0.030578613 0.4298706 0.2854004 0.77941895l-1.5192261 1.6807861q-0.49493408 -0.5476074 -0.6123657 -1.3497925q-0.117370605 -0.80218506 0.2062378 -1.6728821q0.31311035 -0.8823242 1.0045776 -1.6473694q1.0477295 -1.1591492 2.1924438 -1.2605286q1.1447144 -0.10134888 2.1030273 0.9588623l2.4747314 2.737976q0.8109131 0.89712524 1.4416504 1.1080933l0.09472656 0.1048584l-1.5296631 1.6923828zm-2.3104248 0.20263672q0.3352661 -0.37091064 0.47076416 -0.8470154q0.13543701 -0.47607422 0.018920898 -0.9064026l-0.97943115 -1.0835266l-0.56573486 0.62594604q-1.1420288 1.2634888 -0.4255371 2.2184448l0.084228516 0.0932312q0.28430176 0.3145752 0.67297363 0.30404663q0.37805176 -0.02218628 0.7238159 -0.40472412zm4.95697 -7.255066l-2.7750244 -5.411682l1.5820312 -1.7503357l3.7798462 8.424408l-1.4458618 1.5996399l-7.604065 -4.193451l1.5820923 -1.7503357l4.8809814 3.0817566zm8.370361 -5.1362q-0.31536865 -0.11709595 -0.6627197 -0.40863037q0.06604004 1.3017883 -0.8140259 2.2754822q-0.8277588 0.91574097 -1.8674316 0.9941406q-1.0292358 0.066833496 -1.7664185 -0.74871826q-0.90563965 -1.0019836 -0.71954346 -2.2797852q0.18615723 -1.277832 1.4328613 -2.680481l0.70202637 -0.77664185l-0.32647705 -0.36117554q-0.38964844 -0.4310608 -0.8308716 -0.4555664q-0.44128418 -0.047729492 -0.8708496 0.42752075q-0.38763428 0.42889404 -0.41815186 0.88204956q-0.030517578 0.42990112 0.28546143 0.77941895l-1.5192261 1.6807861q-0.49493408 -0.5475769 -0.6123657 -1.3497925q-0.117370605 -0.80218506 0.2062378 -1.6728516q0.31311035 -0.8823242 1.0045776 -1.6473999q1.0477295 -1.1591492 2.1924438 -1.2605286q1.1447144 -0.10134888 2.1030273 0.9588928l2.4747314 2.7379456q0.8109131 0.89712524 1.4416504 1.1080933l0.09472656 0.1048584l-1.5296631 1.6923828zm-2.3104248 0.20266724q0.3352661 -0.37094116 0.47076416 -0.8470154q0.13543701 -0.47610474 0.018859863 -0.9064026l-0.9793701 -1.0835571l-0.56573486 0.62597656q-1.1420288 1.2634888 -0.4255371 2.2184448l0.084228516 0.09320068q0.28430176 0.3145752 0.67297363 0.30404663q0.37805176 -0.02218628 0.7238159 -0.4046936zm6.826416 -9.649597q-0.45281982 -0.50097656 -0.99884033 -0.4095459q-0.55651855 0.07977295 -1.6370239 0.6926575q-1.0910645 0.6012268 -1.8257446 0.85479736q-2.0047607 0.6567688 -3.2052612 -0.67144775q-0.6213379 -0.68740845 -0.76000977 -1.6058655q-0.12817383 -0.9300537 0.24761963 -1.9516602q0.37579346 -1.0216064 1.1929932 -1.9257507q0.81726074 -0.9041443 1.7512207 -1.2850037q0.93395996 -0.3808899 1.8273315 -0.15756226q0.89331055 0.20007324 1.5883789 0.9690552l-1.5716553 1.738739q-0.52648926 -0.58255005 -1.1566772 -0.5378418q-0.6196289 0.033111572 -1.2168579 0.69384766q-0.5762329 0.6375427 -0.6483154 1.2764893q-0.07208252 0.61572266 0.32806396 1.0584717q0.3685913 0.40777588 0.99853516 0.27011108q0.62994385 -0.13769531 1.5739746 -0.6928406q1.751831 -1.0293579 2.9597778 -1.0375671q1.2184448 -0.019805908 2.1135254 0.97052q0.9899292 1.0951843 0.8041992 2.5589294q-0.17523193 1.4521484 -1.4429321 2.8547668q-0.88012695 0.97369385 -1.9295044 1.412323q-1.0493774 0.43865967 -1.9847412 0.23846436q-0.9458618 -0.21185303 -1.6829834 -1.0274353l1.5715942 -1.738739q1.2636719 1.3981018 2.772461 -0.27108765q0.56573486 -0.62594604 0.65893555 -1.2183533q0.0826416 -0.60409546 -0.32806396 -1.0584717zm5.782715 -4.4404297q0.41912842 -0.46365356 0.44934082 -1.0097656q0.030273438 -0.54611206 -0.3383789 -0.97714233l1.4144287 -1.5648499q0.57922363 0.6407776 0.7493286 1.5244751q0.17004395 0.8604431 -0.10095215 1.7661438q-0.27111816 0.8824463 -0.92071533 1.6011353q-1.215332 1.344635 -2.6965942 1.2590942q-1.4812622 -0.085510254 -2.8502808 -1.6001587l-0.0947876 -0.10482788q-1.3163452 -1.4563904 -1.4041748 -3.0835876q-0.08782959 -1.6504517 1.1275635 -2.9950867q1.0686646 -1.182373 2.3186035 -1.2136841q1.2393799 -0.042999268 2.2608032 1.0639038l-1.4144287 1.5648499q-0.4527588 -0.47772217 -0.9885254 -0.49087524q-0.53570557 -0.013122559 -0.965271 0.4621277q-0.5343628 0.5911865 -0.41711426 1.3236389q0.1171875 0.7092285 0.99121094 1.6762695l0.15795898 0.17474365q0.8740845 0.967041 1.5256348 1.1083374q0.6515503 0.11804199 1.1963501 -0.4847412zm3.2738647 -10.589294q-0.3564453 0.30114746 -0.58691406 0.5561676q-0.85913086 0.95051575 -0.5418701 1.9043427l3.7279663 4.12442l-1.508728 1.66922l-5.6972046 -6.3031616l1.4249268 -1.5764618l0.71588135 0.69929504q-0.31829834 -1.3721924 0.48846436 -2.2647552q0.25146484 -0.27819824 0.53466797 -0.4517212l1.44281 1.6426544zm6.5962524 2.1627197l-1.519165 1.6807861l-5.6972046 -6.303131l1.519165 -1.6807861l5.6972046 6.303131zm-8.774536 -6.160736q-0.34753418 -0.38449097 -0.3486328 -0.87257385q0.009338379 -0.49969482 0.4074707 -0.9401703q0.3876953 -0.42889404 0.83929443 -0.4392395q0.45166016 -0.010345459 0.79919434 0.37413025q0.34753418 0.3844757 0.32769775 0.89575195q-0.009338379 0.49969482 -0.3970337 0.92858887q-0.37719727 0.41729736 -0.8287964 0.42764282q-0.45166016 0.010345459 -0.79919434 -0.37413025zm12.32782 -3.9687347q1.3164062 1.4563599 1.5195312 3.0025482q0.19262695 1.5345459 -0.8132324 2.6473541q-0.85913086 0.95051575 -1.9937134 0.87757874l2.6853638 2.9709778l-1.508728 1.6691895l-7.8876343 -8.726517l1.4039307 -1.5532837l0.61053467 0.5595398q-0.11859131 -1.3367767 0.77197266 -2.3220673q1.0477295 -1.1591644 2.4032593 -0.93452454q1.3660278 0.21302795 2.7350464 1.7276459l0.07366943 0.08155823zm-1.6245117 1.5642853q-0.800354 -0.8854828 -1.5150146 -1.0501862q-0.7041626 -0.17630005 -1.2384644 0.41487122q-0.7124634 0.78822327 -0.4373169 1.6954651l2.3378906 2.586502q0.8410034 0.30451965 1.5534668 -0.48371887q1.0791626 -1.1939392 -0.7005615 -3.1629333zm0.07824707 -9.360672l1.4005737 1.5495758l0.9639282 -1.0664368l1.116272 1.2350006l-0.9639282 1.0664368l2.8433838 3.1457367q0.31591797 0.34953308 0.5680542 0.37348938q0.26263428 0.012359619 0.5979004 -0.35856628q0.25146484 -0.2782135 0.40838623 -0.5450592l1.1583862 1.281601q-0.31359863 0.64990234 -0.7850952 1.1715393q-1.5925293 1.7619171 -3.2457275 0.002456665l-3.0644531 -3.3904114l-0.8277588 0.91574097l-1.116272 -1.2350006l0.8277588 -0.91574097l-1.4006348 -1.5495605l1.5192261 -1.6808014z" fill-rule="nonzero"/><path fill="#000000" fill-opacity="0.0" d="m635.3218 324.09448l181.19293 -200.46384l41.722473 46.15995l-181.19287 200.46387z" fill-rule="evenodd"/><path fill="#000000" d="m655.8956 330.02542l-1.0477295 1.1591492l-5.107483 -5.6506653l1.0477295 -1.1591797l5.107483 5.650696zm-1.9595947 -6.2206116l0.4631958 0.4429016q-0.10736084 -0.99972534 0.57366943 -1.7531738q0.597229 -0.6607361 1.2485962 -0.58917236q0.6409302 0.059936523 1.3569336 0.828949l2.4537354 2.7146606l-1.0058594 1.112793l-2.422058 -2.679718q-0.32647705 -0.36117554 -0.62060547 -0.3619995q-0.28363037 -0.012420654 -0.60839844 0.34692383q-0.41912842 0.46365356 -0.27056885 1.1148682l2.6748657 2.95932l-1.0058594 1.1128235l-3.7910767 -4.194336l0.9534302 -1.0548401zm3.3370361 -5.765869l0.93725586 1.0369263l0.64959717 -0.71865845l0.7371826 0.81555176l-0.64959717 0.71868896l1.8955688 2.097168q0.21063232 0.23300171 0.3892212 0.24511719q0.16802979 4.8828125E-4 0.38806152 -0.24295044q0.16766357 -0.18545532 0.27233887 -0.34783936l0.7687378 0.8504944q-0.1986084 0.42944336 -0.51293945 0.77719116q-1.0581665 1.1707458 -2.1638184 -0.0061035156l-2.0429688 -2.2602844l-0.55529785 0.61434937l-0.7371826 -0.81555176l0.55529785 -0.61434937l-0.93725586 -1.0369568l1.0057983 -1.112793zm7.7508545 2.0504456q-0.82769775 0.91574097 -1.8675537 0.9244385q-1.039917 0.00869751 -1.8823853 -0.9234009l-0.105285645 -0.116485596q-0.56866455 -0.6291504 -0.8015137 -1.3735657q-0.23278809 -0.7444153 -0.07684326 -1.4528809q0.16638184 -0.72003174 0.6798096 -1.2880249q0.7753296 -0.8577881 1.7103271 -0.7970581q0.9349365 0.037506104 1.8405762 1.0394897l0.41070557 0.45437622l-2.399292 2.6545105q0.41046143 0.36138916 0.8831177 0.35110474q0.4725952 -0.0335083 0.8497925 -0.45080566q0.58673096 -0.6491394 0.4902954 -1.4745178l1.0505981 0.07269287q0.09588623 0.59295654 -0.10223389 1.2315369q-0.20861816 0.62698364 -0.68011475 1.1485901zm-3.2323608 -3.321167q-0.30389404 0.33618164 -0.28186035 0.77783203q0.021972656 0.4184265 0.34869385 0.895813l1.3934937 -1.541687l-0.084228516 -0.09320068q-0.3369751 -0.37283325 -0.69415283 -0.37384033q-0.36767578 -0.012664795 -0.6819458 0.335083zm4.5548706 -4.5965576q-0.23065186 0.18527222 -0.38781738 0.35916138q-0.57629395 0.6375427 -0.3647461 1.265686l2.4852905 2.7496033l-1.0057983 1.112793l-3.7911377 -4.194336l0.9534302 -1.0548401l0.48425293 0.46621704q-0.22271729 -0.9187012 0.3116455 -1.5098572q0.16766357 -0.18548584 0.3564453 -0.30114746l0.95843506 1.10672zm5.418213 0.29699707q-0.21026611 -0.0703125 -0.44177246 -0.25689697q0.044006348 0.8600769 -0.5427246 1.5092163q-0.55529785 0.61434937 -1.2484741 0.6588745q-0.6826782 0.032958984 -1.1671143 -0.5029907q-0.6107788 -0.67575073 -0.48669434 -1.5121155q0.12408447 -0.85961914 0.9622803 -1.7869568l0.46099854 -0.5100403l-0.22113037 -0.24465942q-0.26330566 -0.29129028 -0.5574341 -0.31533813q-0.29418945 -0.02407837 -0.5770874 0.2888794q-0.25146484 0.27819824 -0.27172852 0.58029175q-0.020324707 0.3020935 0.19030762 0.53512573l-1.0058594 1.112793q-0.32647705 -0.36117554 -0.41174316 -0.8959961q-0.08526611 -0.53482056 0.123535156 -1.1152954q0.21917725 -0.592041 0.6801758 -1.1020813q0.6915283 -0.76504517 1.4581909 -0.8209839q0.76660156 -0.079193115 1.4089966 0.63150024l1.6428223 1.8175354q0.53704834 0.59420776 0.95758057 0.7348633l0.06317139 0.069885254l-1.0162964 1.1243896zm-1.5437622 0.14672852q0.22003174 -0.2434082 0.31384277 -0.5569458q0.08325195 -0.32513428 0.009094238 -0.61587524l-0.6529541 -0.7223511l-0.37719727 0.41729736q-0.7543335 0.8345947 -0.2802124 1.4750977l0.06323242 0.069885254q0.18951416 0.2097168 0.4416504 0.21044922q0.25201416 -0.02255249 0.48254395 -0.27755737zm4.00885 -4.5284424q0.2723999 -0.30136108 0.3031006 -0.66152954q0.020141602 -0.37182617 -0.24316406 -0.66311646l0.9534912 -1.0548401q0.3791504 0.442688 0.4960327 1.0357056q0.116882324 0.5697632 -0.060302734 1.1619568q-0.1772461 0.5921631 -0.61724854 1.07901q-0.8067627 0.8925781 -1.7942505 0.84329224q-0.9875488 -0.072509766 -1.8932495 -1.0744934l-0.06317139 -0.069885254q-0.8845825 -0.97869873 -0.9395752 -2.0596313q-0.055114746 -1.1041565 0.75164795 -1.9967041q0.70202637 -0.77664185 1.5422974 -0.79751587q0.8297119 -0.03253174 1.5141602 0.7015381l-0.9534302 1.0548401q-0.29486084 -0.3262329 -0.65197754 -0.32724q-0.36767578 -0.012664795 -0.65057373 0.3003235q-0.34576416 0.38253784 -0.27105713 0.8824463q0.07458496 0.47668457 0.6538086 1.1174927l0.105285645 0.116485596q0.57922363 0.6408081 1.0206299 0.73501587q0.43084717 0.08258057 0.7975464 -0.32315063zm-0.62109375 -8.120911l0.93725586 1.0369263l0.64959717 -0.71868896l0.7371216 0.8155823l-0.64959717 0.71865845l1.8955688 2.097168q0.21063232 0.23303223 0.3892212 0.2451477q0.16809082 4.8828125E-4 0.38812256 -0.24295044q0.16760254 -0.18545532 0.27227783 -0.34786987l0.7687378 0.8505249q-0.19854736 0.42941284 -0.5128784 0.77716064q-1.0582275 1.1707764 -2.1638794 -0.0061035156l-2.0429688 -2.2602844l-0.55529785 0.6143799l-0.7371826 -0.8155823l0.55529785 -0.61434937l-0.93725586 -1.0369263l1.0058594 -1.112793zm7.006592 2.7107544l-1.0163574 1.1243896l-3.7910767 -4.194336l1.0162964 -1.1243896l3.7911377 4.194336zm-5.8602295 -4.095581q-0.22113037 -0.24465942 -0.2218628 -0.57006836q0.00970459 -0.3369751 0.27166748 -0.62677q0.26190186 -0.28979492 0.5560303 -0.28897095q0.30456543 -0.0107421875 0.52575684 0.23391724q0.23162842 0.25631714 0.22192383 0.59329224q7.324219E-4 0.32540894 -0.26116943 0.61520386q-0.25146484 0.27819824 -0.5560303 0.28894043q-0.30462646 0.010772705 -0.5363159 -0.24554443zm6.857849 0.2421875l-1.8464966 -3.596161l1.0477295 -1.1591492l2.5233765 5.596924l-0.9639282 1.0664368l-5.069336 -2.7801514l1.0582275 -1.1707764l3.2504272 2.0428772zm4.5080566 -2.237854l-1.0162964 1.1243896l-3.7911377 -4.194336l1.0162964 -1.1243896l3.7911377 4.194336zm-5.8602295 -4.095581q-0.22113037 -0.24465942 -0.2218628 -0.57006836q0.00970459 -0.3369751 0.27166748 -0.62677q0.26190186 -0.28979492 0.5560303 -0.28897095q0.30456543 -0.010772705 0.52575684 0.23391724q0.23168945 0.25631714 0.22192383 0.59329224q7.9345703E-4 0.32540894 -0.26116943 0.61520386q-0.25146484 0.27819824 -0.5560303 0.28894043q-0.30462646 0.010772705 -0.5363159 -0.24554443zm3.1625977 -3.3824158l0.93725586 1.0369263l0.64959717 -0.71868896l0.7371216 0.8155823l-0.64953613 0.71865845l1.8955078 2.097168q0.21063232 0.23303223 0.3892212 0.2451477q0.16809082 4.8828125E-4 0.38812256 -0.24295044q0.16760254 -0.18545532 0.27227783 -0.34786987l0.7687378 0.8505249q-0.19854736 0.42941284 -0.5128784 0.77716064q-1.0582275 1.1707764 -2.1638794 -0.0061035156l-2.0429688 -2.260254l-0.55529785 0.61434937l-0.7371826 -0.8155823l0.55529785 -0.61434937l-0.9371948 -1.0369263l1.0057983 -1.112793zm5.909668 0.75527954l-1.6569824 -3.386444l1.0791626 -1.1939392l2.8616333 6.527588l0.11627197 0.3140869q0.41241455 1.1981506 -0.362854 2.0559387q-0.22003174 0.2434082 -0.524292 0.41687012l-0.7687378 -0.8504944l0.16772461 -0.16223145q0.2828369 -0.31298828 0.3242798 -0.5685425q0.062438965 -0.25549316 -0.053833008 -0.5695801l-0.2006836 -0.47702026l-5.121765 -2.745453l1.0895996 -1.2055359l3.050476 1.8447571zm3.3100586 -4.757263q-0.5687256 -0.6291504 -0.80145264 -1.3503418q-0.22229004 -0.73275757 -0.055847168 -1.4527893q0.16638184 -0.72006226 0.7007446 -1.3112183q0.76483154 -0.8461914 1.7207031 -0.85513306q0.9453125 -0.020568848 1.8190308 0.80700684l0.26330566 0.29125977q0.8635254 0.9553833 0.91864014 2.0827942q0.044555664 1.1157532 -0.77264404 2.0198975q-0.81726074 0.9041748 -1.8362427 0.86642456q-1.0084839 -0.049316406 -1.9141235 -1.0513l-0.042114258 -0.04660034zm1.0795288 -1.03125q0.53704834 0.59420776 1.0204468 0.6885376q0.49389648 0.082733154 0.87109375 -0.3345642q0.36669922 -0.40570068 0.2814331 -0.94052124q-0.07476807 -0.54641724 -0.6856079 -1.222168q-0.53704834 -0.59420776 -1.0309448 -0.6769409q-0.49389648 -0.10598755 -0.87109375 0.3113098q-0.36669922 0.4057312 -0.28137207 0.96377563q0.08526611 0.53482056 0.6960449 1.2105713zm4.318115 -6.9677734q-0.23065186 0.18527222 -0.38781738 0.35916138q-0.5762329 0.6375427 -0.36468506 1.265686l2.4852905 2.7496033l-1.0058594 1.112793l-3.7911377 -4.194336l0.9534912 -1.0548401l0.48425293 0.46621704q-0.22271729 -0.9187012 0.3116455 -1.5098572q0.16760254 -0.18548584 0.3564453 -0.30114746l0.958374 1.10672zm6.6538086 -5.194397q0.91619873 1.0136108 1.0445557 2.0133972q0.11779785 0.98812866 -0.5841675 1.7647705q-0.607666 0.67233276 -1.4483032 0.55374146l0.35827637 0.48910522l-0.911499 1.0084839l-5.3918457 -5.965271l1.0058594 -1.112793l1.9376831 2.1437683q-0.054504395 -0.84851074 0.5112915 -1.4744568q0.6914673 -0.76504517 1.5951538 -0.6230469q0.9036255 0.1187439 1.8303223 1.144043l0.05267334 0.058258057zm-1.0900269 1.0428162q-0.56866455 -0.6291504 -1.0100708 -0.72335815q-0.4519043 -0.10586548 -0.8186035 0.2998352q-0.47149658 0.52163696 -0.2598877 1.1730042l1.4953613 1.6544495q0.58880615 0.23406982 1.0707397 -0.2991333q0.49243164 -0.5447998 0.15472412 -1.243042q-0.15838623 -0.33746338 -0.6322632 -0.8617554zm2.8447876 -5.151306q-0.23065186 0.18530273 -0.38781738 0.35916138q-0.5762329 0.6375427 -0.3647461 1.265686l2.4852905 2.7496338l-1.0057983 1.112793l-3.7911377 -4.194336l0.9534302 -1.0548401l0.48431396 0.46621704q-0.22271729 -0.9187012 0.31158447 -1.5098877q0.16766357 -0.18545532 0.3564453 -0.30114746l0.95843506 1.10672zm5.418213 0.2970276q-0.21020508 -0.0703125 -0.44177246 -0.25689697q0.044006348 0.8600769 -0.5427246 1.5092163q-0.55529785 0.61434937 -1.2484741 0.6588745q-0.6826782 0.032958984 -1.1670532 -0.5029907q-0.61083984 -0.67575073 -0.48669434 -1.512146q0.12408447 -0.85961914 0.96221924 -1.7869263l0.46105957 -0.5100403l-0.2211914 -0.24468994q-0.26324463 -0.29125977 -0.5574341 -0.31533813q-0.29418945 -0.02407837 -0.57702637 0.2889099q-0.25146484 0.27819824 -0.27178955 0.58029175q-0.020324707 0.3020935 0.19030762 0.53512573l-1.0057983 1.112793q-0.32647705 -0.36117554 -0.41174316 -0.8959961q-0.08526611 -0.53482056 0.12347412 -1.1152954q0.21923828 -0.59207153 0.6802368 -1.1020813q0.6914673 -0.76504517 1.4581299 -0.8210144q0.7666626 -0.0791626 1.4089966 0.63153076l1.6428223 1.8175354q0.5371094 0.59420776 0.95758057 0.73483276l0.06317139 0.06991577l-1.0162964 1.1243896zm-1.5437622 0.14672852q0.22003174 -0.24343872 0.31384277 -0.5569458q0.08331299 -0.3251648 0.009094238 -0.61590576l-0.65289307 -0.7223511l-0.37719727 0.41729736q-0.75439453 0.8345947 -0.2802124 1.4751282l0.06317139 0.069885254q0.1895752 0.2097168 0.4416504 0.2104187q0.2520752 -0.022521973 0.48254395 -0.27752686zm4.253662 -3.1448364l-1.0162964 1.1243896l-3.7911377 -4.1943054l1.0162964 -1.1243896l3.7911377 4.1943054zm-5.8601685 -4.0955505q-0.2211914 -0.24468994 -0.22192383 -0.57006836q0.00970459 -0.33700562 0.27166748 -0.62677q0.26190186 -0.28979492 0.5560303 -0.28897095q0.30462646 -0.010772705 0.52575684 0.23391724q0.23168945 0.25631714 0.22192383 0.59329224q7.9345703E-4 0.32540894 -0.26116943 0.61520386q-0.25146484 0.27819824 -0.5560303 0.28894043q-0.30462646 0.010772705 -0.5362549 -0.24554443zm3.8273926 -2.044098l0.4631958 0.4429016q-0.10736084 -0.99972534 0.57366943 -1.7531738q0.597229 -0.6607361 1.2485962 -0.58917236q0.6409302 0.059906006 1.3569336 0.828949l2.4537354 2.7146606l-1.0058594 1.112793l-2.422058 -2.679718q-0.32647705 -0.36117554 -0.62060547 -0.3619995q-0.28363037 -0.012420654 -0.60839844 0.34692383q-0.41912842 0.46365356 -0.27056885 1.1148682l2.6748657 2.95932l-1.0058594 1.112793l-3.7910767 -4.1943054l0.9534302 -1.0548401z" fill-rule="nonzero"/></g></svg>